<svg width="20" height="21" viewBox="0 0 20 21" fill="none" xmlns="http://www.w3.org/2000/svg">
<mask id="mask0_1693_20301" style="mask-type:alpha" maskUnits="userSpaceOnUse" x="0" y="0" width="20" height="21">
<rect y="0.5" width="20" height="20" fill="#D9D9D9"/>
</mask>
<g mask="url(#mask0_1693_20301)">
<path d="M10.0003 17.9999L8.79199 16.9166C7.38921 15.6527 6.22949 14.5624 5.31283 13.6458C4.39616 12.7291 3.66699 11.9062 3.12533 11.177C2.58366 10.4478 2.20519 9.7777 1.98991 9.16658C1.77463 8.55547 1.66699 7.93047 1.66699 7.29158C1.66699 5.98603 2.10449 4.89575 2.97949 4.02075C3.85449 3.14575 4.94477 2.70825 6.25033 2.70825C6.97255 2.70825 7.66005 2.86103 8.31283 3.16659C8.9656 3.47214 9.5281 3.9027 10.0003 4.45825C10.4725 3.9027 11.035 3.47214 11.6878 3.16659C12.3406 2.86103 13.0281 2.70825 13.7503 2.70825C15.0559 2.70825 16.1462 3.14575 17.0212 4.02075C17.8962 4.89575 18.3337 5.98603 18.3337 7.29158C18.3337 7.93047 18.226 8.55547 18.0107 9.16658C17.7955 9.7777 17.417 10.4478 16.8753 11.177C16.3337 11.9062 15.6045 12.7291 14.6878 13.6458C13.7712 14.5624 12.6114 15.6527 11.2087 16.9166L10.0003 17.9999Z" fill="#6D6D6D"/>
</g>
</svg>
