<svg width="18" height="17" viewBox="0 0 18 17" fill="none" xmlns="http://www.w3.org/2000/svg">
<path d="M6.70833 16.8334L6.375 14.1667C6.19444 14.0973 6.02431 14.014 5.86458 13.9167C5.70486 13.8195 5.54861 13.7154 5.39583 13.6042L2.91667 14.6459L0.625 10.6876L2.77083 9.06258C2.75694 8.96536 2.75 8.87161 2.75 8.78133V8.21883C2.75 8.12855 2.75694 8.0348 2.77083 7.93758L0.625 6.31258L2.91667 2.35425L5.39583 3.39591C5.54861 3.2848 5.70833 3.18064 5.875 3.08341C6.04167 2.98619 6.20833 2.90286 6.375 2.83341L6.70833 0.166748H11.2917L11.625 2.83341C11.8056 2.90286 11.9757 2.98619 12.1354 3.08341C12.2951 3.18064 12.4514 3.2848 12.6042 3.39591L15.0833 2.35425L17.375 6.31258L15.2292 7.93758C15.2431 8.0348 15.25 8.12855 15.25 8.21883V8.78133C15.25 8.87161 15.2361 8.96536 15.2083 9.06258L17.3542 10.6876L15.0625 14.6459L12.6042 13.6042C12.4514 13.7154 12.2917 13.8195 12.125 13.9167C11.9583 14.014 11.7917 14.0973 11.625 14.1667L11.2917 16.8334H6.70833ZM9.04167 11.4167C9.84722 11.4167 10.5347 11.132 11.1042 10.5626C11.6736 9.99314 11.9583 9.30564 11.9583 8.50008C11.9583 7.69453 11.6736 7.00703 11.1042 6.43758C10.5347 5.86814 9.84722 5.58341 9.04167 5.58341C8.22222 5.58341 7.53125 5.86814 6.96875 6.43758C6.40625 7.00703 6.125 7.69453 6.125 8.50008C6.125 9.30564 6.40625 9.99314 6.96875 10.5626C7.53125 11.132 8.22222 11.4167 9.04167 11.4167Z" fill="#6D6D6D"/>
</svg>
