<svg width="35" height="37" viewBox="0 0 35 37" fill="none" xmlns="http://www.w3.org/2000/svg">
<path d="M12.4148 17.792C12.4163 17.3255 12.7951 16.9498 13.2616 16.9498C15.4296 16.9545 17.5349 16.9577 19.6403 16.9639C20.963 16.967 22.126 16.5162 22.7365 15.3344C23.4471 13.9601 23.7571 12.4683 22.8257 11.022C22.0994 9.89494 21.0271 9.39404 19.6998 9.39404C17.6962 9.39404 15.691 9.38621 13.6874 9.38151C13.5684 9.38151 13.4479 9.38151 13.3258 9.37995C12.8593 9.37838 12.4836 9.00114 12.4836 8.53468L12.4993 0.841136C12.5009 0.365279 12.8953 -0.0166583 13.3696 0.000560172C16.627 0.119524 19.8923 -0.0150938 23.0057 0.606338C28.9899 1.79911 32.9846 7.536 32.5823 13.6329C32.2301 18.9754 29.3077 22.4973 24.5789 24.6919C24.5757 24.6935 24.5726 24.695 24.5679 24.6966C24.031 24.9439 23.8964 25.6436 24.3143 26.0631C27.4418 29.2031 30.5459 32.3181 33.7751 35.5599C34.3057 36.0921 33.9285 37.0016 33.1772 37L30.5944 36.9937C28.2386 36.989 25.8812 37.0157 23.527 36.9515C23.073 36.939 22.5032 36.6885 22.1996 36.3535C19.083 32.9145 16.0087 29.4395 12.9329 25.9629C12.709 25.7109 12.4226 25.3838 12.4195 25.0895C12.3913 22.6961 12.4069 20.3012 12.4148 17.792Z" fill="#4E23CB"/>
<path d="M1.23488 26.2384L8.58405 26.2541C9.15695 26.2556 9.62185 25.7923 9.62342 25.2194L9.63907 17.8702C9.64064 17.2973 9.1773 16.8324 8.6044 16.8308L1.25522 16.8152C0.682316 16.8136 0.217416 17.277 0.215851 17.8499L0.200199 25.199C0.198634 25.7735 0.661968 26.2384 1.23488 26.2384Z" fill="#4E23CB"/>
<path d="M10.286 4.02483L5.30831 0.554517C5.22848 0.499731 5.11891 0.499731 5.03908 0.554517L0.0879787 4.00291C-0.0810757 4.12031 0.00971287 4.36607 0.222596 4.36763L1.30736 4.3692L1.2964 9.4377L9.05882 9.45492L9.06977 4.38642L10.1514 4.38798C10.3627 4.38955 10.4551 4.14223 10.286 4.02483Z" fill="#4E23CB"/>
</svg>
