<svg width="20" height="20" viewBox="0 0 20 20" fill="none" xmlns="http://www.w3.org/2000/svg">
<path d="M13.225 3.54834H6.77344V16.4516H13.225V3.54834Z" fill="white"/>
<path d="M18.2927 3.54834H13.2246V16.4516H18.2927C19.0568 16.4516 19.6762 15.8322 19.6762 15.0681V4.93182C19.6762 4.16771 19.0568 3.54834 18.2927 3.54834Z" fill="#259245"/>
<path d="M1.70578 3.54834C0.94168 3.54834 0.322266 4.16775 0.322266 4.93182V15.068C0.322266 15.8321 0.941719 16.4515 1.70578 16.4515H6.77387V3.54834H1.70578Z" fill="#259245"/>
<path d="M18.2939 3.22583H1.70609C0.765391 3.22583 0 3.99118 0 4.93192V15.0681C0 16.0088 0.765391 16.7742 1.70609 16.7742H18.2939C19.2346 16.7742 20 16.0088 20 15.0681V4.93192C20 3.99118 19.2346 3.22583 18.2939 3.22583ZM0.645156 15.0681V4.93192C0.645156 4.34688 1.12105 3.87099 1.70609 3.87099H6.4516V4.83872C6.4516 5.01692 6.59598 5.1613 6.77418 5.1613C6.95238 5.1613 7.09676 5.01692 7.09676 4.83872V3.87099H12.9032V16.129H7.09676V6.12903C7.09676 5.95083 6.95238 5.80646 6.77418 5.80646C6.59598 5.80646 6.4516 5.95083 6.4516 6.12903V16.129H1.70609C1.12109 16.129 0.645156 15.6531 0.645156 15.0681ZM19.3548 15.0681C19.3548 15.6531 18.8789 16.129 18.2939 16.129H13.5484V3.87099H18.2939C18.8789 3.87099 19.3548 4.34688 19.3548 4.93192V15.0681Z" fill="#111A21"/>
</svg>
