<svg width="38" height="38" viewBox="0 0 38 38" fill="none" xmlns="http://www.w3.org/2000/svg">
<path d="M29.7013 18.8731C34.2144 18.8731 37.8731 16.7946 37.8731 14.2307C37.8731 11.6668 34.2144 9.58838 29.7013 9.58838C25.1882 9.58838 21.5295 11.6668 21.5295 14.2307C21.5295 16.7946 25.1882 18.8731 29.7013 18.8731Z" fill="#4E23CB"/>
<path fill-rule="evenodd" clip-rule="evenodd" d="M29.8236 21.5435C23.9789 21.5435 21.6519 19.0941 21.6519 17.6753V23.7529C21.6519 26.3176 25.3107 28.3929 29.8236 28.3929C34.3413 28.3929 38.0001 26.3176 38.0001 23.7529V17.8212C38.0001 19.2424 35.6707 21.5435 29.8236 21.5435Z" fill="#4E23CB"/>
<path fill-rule="evenodd" clip-rule="evenodd" d="M29.8236 30.9342C24.5954 30.9342 21.6519 28.5789 21.6519 27.1601V33.1813C21.6519 35.746 25.3107 37.8236 29.8236 37.8236C34.3413 37.8236 38.0001 35.746 38.0001 33.1813V27.0872C38.0001 28.506 35.0542 30.9342 29.8236 30.9342Z" fill="#4E23CB"/>
<path d="M9.61656 9.46122C14.7327 9.46122 18.8801 7.38277 18.8801 4.81887C18.8801 2.25497 14.7327 0.176514 9.61656 0.176514C4.50045 0.176514 0.353027 2.25497 0.353027 4.81887C0.353027 7.38277 4.50045 9.46122 9.61656 9.46122Z" fill="#4E23CB"/>
<path fill-rule="evenodd" clip-rule="evenodd" d="M9.91075 12.1319C3.28722 12.1319 0.647217 9.6825 0.647217 8.26367V14.3413C0.647217 16.906 4.79545 18.9813 9.91075 18.9813C15.0307 18.9813 19.1766 16.906 19.1766 14.3413V8.40955C19.1766 9.83073 16.5343 12.1319 9.91075 12.1319Z" fill="#4E23CB"/>
<path fill-rule="evenodd" clip-rule="evenodd" d="M9.91075 21.5224C3.98369 21.5224 0.647217 19.1671 0.647217 17.7482V23.7694C0.647217 26.3341 4.79545 28.4118 9.91075 28.4118C15.0307 28.4118 19.1766 26.3341 19.1766 23.7694V17.6753C19.1766 19.0941 15.8355 21.5224 9.91075 21.5224Z" fill="#4E23CB"/>
<path fill-rule="evenodd" clip-rule="evenodd" d="M9.91075 30.9342C3.98369 30.9342 0.647217 28.5789 0.647217 27.1601V33.1813C0.647217 35.746 4.79545 37.8236 9.91075 37.8236C15.0307 37.8236 19.1766 35.746 19.1766 33.1813V27.0872C19.1766 28.506 15.8355 30.9342 9.91075 30.9342Z" fill="#4E23CB"/>
</svg>
