<svg width="95" height="172" viewBox="0 0 95 172" fill="none" xmlns="http://www.w3.org/2000/svg">
<g clip-path="url(#clip0_1228_41211)">
<path d="M19.4823 75.8957V70.9688C19.4823 65.6437 15.3054 61.55 9.9792 61.55H9.85697C4.5313 61.55 -0.0283203 65.6437 -0.0283203 70.9688V75.8957H19.4823Z" fill="white"/>
<path d="M47.0254 29.4158H75.8372L47.0254 0.150726V29.4158Z" fill="white"/>
<path d="M38.4181 33.7195V0.150726H-42.0133C-49.924 0.150726 -56.8369 6.68144 -56.8369 14.5916V156.71C-56.8369 164.62 -49.9235 171.151 -42.0133 171.151H61.8491C69.7593 171.151 75.7168 164.62 75.7168 156.71V38.0232H42.9129C40.5355 38.0232 38.4181 36.0969 38.4181 33.7195ZM30.9584 107.376C30.9584 113.704 26.288 118.933 19.9599 118.933H-0.12402C-6.45217 118.933 -12.0785 113.705 -12.0785 107.376V87.2924C-12.0785 84.1439 -10.9309 81.3086 -8.63557 79.2526V70.9683C-8.63557 60.8971 -0.21526 52.9421 9.8571 52.9421H9.97933C20.0517 52.9421 28.0898 60.8971 28.0898 70.9683V79.5791C29.8113 81.6047 30.959 84.3034 30.959 87.2919L30.9584 107.376Z" fill="white"/>
<path d="M1.55273 92.6623C1.55273 95.5297 2.84098 98.0557 5.13628 99.539V106.176C5.13628 108.442 7.17508 110.276 9.44112 110.276C11.706 110.276 13.7437 108.442 13.7437 106.176V99.8874C16.6128 98.4746 18.0921 95.769 18.0921 92.6617C18.0921 88.0947 14.3892 84.3918 9.82214 84.3918C5.25564 84.3923 1.55273 88.0952 1.55273 92.6623Z" fill="white"/>
</g>
<defs>
<clipPath id="clip0_1228_41211">
<rect width="95" height="171" fill="white" transform="translate(0 0.150726)"/>
</clipPath>
</defs>
</svg>
