<svg width="20" height="19" viewBox="0 0 20 19" fill="none" xmlns="http://www.w3.org/2000/svg">
<path d="M6.25 13.2501V9.35422L14.6604 0.943799C14.8437 0.760466 15.05 0.622966 15.2792 0.531299C15.5083 0.439632 15.7375 0.393799 15.9667 0.393799C16.2111 0.393799 16.4441 0.439632 16.6656 0.531299C16.8872 0.622966 17.0896 0.760466 17.2729 0.943799L18.5562 2.25005C18.7243 2.43338 18.8542 2.63581 18.9458 2.85734C19.0375 3.07887 19.0833 3.30422 19.0833 3.53338C19.0833 3.76255 19.0413 3.9879 18.9573 4.20942C18.8733 4.43095 18.7396 4.63338 18.5562 4.81672L10.1458 13.2501H6.25ZM15.9667 4.81672L17.2729 3.53338L15.9896 2.25005L14.6833 3.53338L15.9667 4.81672ZM2.58333 18.75C2.07917 18.75 1.64757 18.5705 1.28854 18.2115C0.929514 17.8525 0.75 17.4209 0.75 16.9167V4.08338C0.75 3.57922 0.929514 3.14762 1.28854 2.78859C1.64757 2.42956 2.07917 2.25005 2.58333 2.25005H10.7646L4.41667 8.59797V15.0834H10.8792L17.25 8.71255V16.9167C17.25 17.4209 17.0705 17.8525 16.7115 18.2115C16.3524 18.5705 15.9208 18.75 15.4167 18.75H2.58333Z" fill="#4E23CB"/>
</svg>
