<svg width="59" height="172" viewBox="0 0 59 172" fill="none" xmlns="http://www.w3.org/2000/svg">
<path d="M87.5645 10.989C93.4586 10.989 98.252 15.7823 98.252 21.6765V149.926C98.252 155.821 93.4586 160.614 87.5645 160.614H21.4355C15.5414 160.614 10.748 155.821 10.748 149.926V21.6765C10.748 15.7823 15.5414 10.989 21.4355 10.989H87.5645ZM87.5645 0.301453H21.4355C9.6793 0.301453 0.0605469 9.9202 0.0605469 21.6765V149.926C0.0605469 161.683 9.6793 171.301 21.4355 171.301H87.5645C99.3207 171.301 108.939 161.683 108.939 149.926V21.6765C108.939 9.9202 99.326 0.301453 87.5645 0.301453Z" fill="white"/>
<path d="M101.929 141.505H8.41309V161.95H101.929V141.505Z" fill="black"/>
<path d="M101.929 8.57892H8.41309V20.4794H101.929V8.57892Z" fill="black"/>
</svg>
