<svg width="24" height="25" viewBox="0 0 24 25" fill="none" xmlns="http://www.w3.org/2000/svg">
<path d="M9.75 12.8374C9.75 11.5948 10.7574 10.5874 12 10.5874C13.2426 10.5874 14.25 11.5948 14.25 12.8374C14.25 14.08 13.2426 15.0874 12 15.0874C10.7574 15.0874 9.75 14.08 9.75 12.8374Z" fill="#494949"/>
<path fill-rule="evenodd" clip-rule="evenodd" d="M2 12.8374C2 14.4768 2.42496 15.0289 3.27489 16.1331C4.97196 18.3378 7.81811 20.8374 12 20.8374C16.1819 20.8374 19.028 18.3378 20.7251 16.1331C21.575 15.0289 22 14.4768 22 12.8374C22 11.198 21.575 10.6459 20.7251 9.54173C19.028 7.33696 16.1819 4.8374 12 4.8374C7.81811 4.8374 4.97196 7.33696 3.27489 9.54173C2.42496 10.6459 2 11.198 2 12.8374ZM12 9.0874C9.92893 9.0874 8.25 10.7663 8.25 12.8374C8.25 14.9085 9.92893 16.5874 12 16.5874C14.0711 16.5874 15.75 14.9085 15.75 12.8374C15.75 10.7663 14.0711 9.0874 12 9.0874Z" fill="#494949"/>
</svg>
