<svg width="118" height="130" viewBox="0 0 118 130" fill="none" xmlns="http://www.w3.org/2000/svg">
<path d="M43.0573 62.5444C43.0627 60.9266 44.3765 59.6236 45.9943 59.6236C53.5133 59.6399 60.8151 59.6508 68.1169 59.6725C72.7043 59.6834 76.7379 58.1198 78.8552 54.0211C81.3199 49.2545 82.3948 44.0808 79.1646 39.0645C76.6456 35.1558 72.9269 33.4185 68.3232 33.4185C61.3742 33.4185 54.4199 33.3914 47.4709 33.3751C47.0583 33.3751 46.6403 33.3751 46.2169 33.3697C44.5991 33.3643 43.2961 32.0559 43.2961 30.4381L43.3504 3.75525C43.3559 2.10488 44.7239 0.780238 46.3689 0.839955C57.6663 1.25255 68.9909 0.785664 79.7889 2.94092C100.543 7.07771 114.398 26.9745 113.003 48.1199C111.781 66.6486 101.646 78.8635 85.2449 86.4748C85.2341 86.4802 85.2232 86.4856 85.2069 86.4911C83.3448 87.3488 82.878 89.7755 84.3275 91.2305C95.1743 102.121 105.94 112.924 117.139 124.167C118.98 126.013 117.672 129.167 115.066 129.162L106.108 129.14C97.9376 129.124 89.7617 129.216 81.5967 128.994C80.0224 128.95 78.0463 128.082 76.9931 126.92C66.1842 114.993 55.5219 102.94 44.8542 90.883C44.0779 90.009 43.0844 88.8743 43.0736 87.8537C42.9758 79.553 43.0301 71.2468 43.0573 62.5444Z" fill="white"/>
<path d="M4.28429 91.8381L29.7728 91.8924C31.7597 91.8978 33.3721 90.2909 33.3775 88.3039L33.4318 62.8154C33.4373 60.8285 31.8303 59.2161 29.8434 59.2107L4.35486 59.1564C2.3679 59.151 0.755527 60.7579 0.750098 62.7449L0.695814 88.2333C0.690386 90.2257 2.29733 91.8381 4.28429 91.8381Z" fill="white"/>
<path d="M35.6741 14.7972L18.4104 2.7614C18.1335 2.57139 17.7535 2.57139 17.4766 2.7614L0.305129 14.7212C-0.281188 15.1283 0.0336863 15.9807 0.772011 15.9861L4.53421 15.9915L4.49621 33.5702L31.4179 33.6299L31.4559 16.0512L35.2073 16.0567C35.9402 16.0621 36.2605 15.2043 35.6741 14.7972Z" fill="white"/>
</svg>
