<svg width="42" height="46" viewBox="0 0 42 46" fill="none" xmlns="http://www.w3.org/2000/svg">
<path d="M15.3257 22.1259C15.3276 21.55 15.7952 21.0863 16.371 21.0863C19.0473 21.0921 21.6462 21.096 24.2452 21.1037C25.878 21.1075 27.3137 20.551 28.0673 19.0922C28.9445 17.3956 29.3271 15.5541 28.1774 13.7687C27.2808 12.3774 25.9572 11.7591 24.3186 11.7591C21.8453 11.7591 19.37 11.7494 16.8966 11.7436C16.7498 11.7436 16.601 11.7436 16.4503 11.7417C15.8744 11.7397 15.4107 11.274 15.4107 10.6982L15.43 1.20094C15.4319 0.613515 15.9189 0.142034 16.5044 0.163289C20.5255 0.310144 24.5563 0.143965 28.3996 0.911091C35.7868 2.38351 40.7181 9.46541 40.2215 16.9917C39.7867 23.5867 36.1791 27.9344 30.3416 30.6435C30.3377 30.6454 30.3339 30.6473 30.3281 30.6493C29.6653 30.9546 29.4991 31.8183 30.015 32.3362C33.8758 36.2124 37.7076 40.0577 41.6939 44.0595C42.3489 44.7165 41.8833 45.8391 40.9558 45.8372L37.7675 45.8295C34.8593 45.8237 31.9493 45.8565 29.0431 45.7773C28.4827 45.7618 27.7794 45.4527 27.4045 45.0392C23.5573 40.7939 19.7622 36.5042 15.9652 32.2125C15.6889 31.9014 15.3353 31.4976 15.3314 31.1343C15.2967 28.1798 15.316 25.2234 15.3257 22.1259Z" fill="white"/>
<path d="M1.52531 32.5527L10.5975 32.572C11.3047 32.5739 11.8786 32.0019 11.8805 31.2947L11.8999 22.2225C11.9018 21.5153 11.3298 20.9414 10.6226 20.9395L1.55042 20.9202C0.8432 20.9182 0.269305 21.4902 0.267373 22.1974L0.248052 31.2696C0.246119 31.9788 0.818082 32.5527 1.52531 32.5527Z" fill="white"/>
<path d="M12.6976 5.13103L6.55284 0.84711C6.4543 0.779479 6.31903 0.779479 6.22049 0.84711L0.108605 5.10398C-0.100084 5.2489 0.01199 5.55227 0.274784 5.55421L1.61387 5.55614L1.60035 11.8129L11.1826 11.8342L11.1962 5.57739L12.5314 5.57933C12.7923 5.58126 12.9063 5.27595 12.6976 5.13103Z" fill="white"/>
</svg>
