<svg width="85" height="172" viewBox="0 0 85 172" fill="none" xmlns="http://www.w3.org/2000/svg">
<g clip-path="url(#clip0_1228_41205)">
<path d="M125.588 42.3932V4.82662H104.881V23.3494L80.814 1.36655L-0.0302734 73.7276L12.2604 87.5813L24.7247 76.326V169.815H136.275V77.0207L148.539 88.276L161.157 74.7696L125.588 42.3932ZM112.068 105.089C113.798 106.752 113.003 109.658 110.719 110.212L102.757 112.256L105.008 120.151C105.629 122.436 103.485 124.547 101.234 123.919L93.4787 121.708L104.56 143.757L95.3156 141.126L92.7573 149.676L80.5 125.235L68.2428 149.676L65.6845 141.126L56.4398 143.757L67.5214 121.708L59.7663 123.919C57.4818 124.547 55.3711 122.396 55.9923 120.151L58.2433 112.256L50.2811 110.212C47.9967 109.658 47.2018 106.752 48.9318 105.089L54.7432 99.3776L48.8984 93.6665C47.1617 92.0032 47.9633 89.0976 50.2477 88.5432L58.2099 86.4992L55.9589 78.6105C55.3377 76.326 57.4818 74.2152 59.7329 74.8364L67.6216 77.0875L69.6656 69.1253C70.22 66.8409 73.1991 66.0794 74.7889 67.776L80.5 73.6608L86.2112 67.776C87.841 66.046 90.7801 66.8743 91.3345 69.1253L93.3785 77.0875L101.267 74.8364C103.552 74.2152 105.669 76.3594 105.041 78.6105L102.79 86.4992L110.752 88.5432C113.037 89.0976 113.838 92.0032 112.102 93.6665L106.257 99.3776L112.068 105.089ZM81.1947 80.2336C70.6007 80.2336 62.0507 88.8237 62.0507 99.411C62.0507 110.005 70.6007 118.555 81.1947 118.555C91.782 118.555 100.332 109.972 100.332 99.3776C100.332 88.7836 91.7152 80.2336 81.1947 80.2336ZM92.0626 92.2838L78.9103 110.459L70.4939 101.315C69.5587 100.279 69.5988 98.723 70.6007 97.7144C71.6361 96.7859 73.1991 96.8193 74.2011 97.8212L78.4561 102.424L87.9412 89.338C88.7762 88.2359 90.3325 87.9219 91.5082 88.7502C92.617 89.5451 92.8909 91.1749 92.0626 92.2838Z" fill="white"/>
</g>
<defs>
<clipPath id="clip0_1228_41205">
<rect width="85" height="171" fill="white" transform="translate(0 0.150726)"/>
</clipPath>
</defs>
</svg>
