<svg width="85" height="169" viewBox="0 0 85 169" fill="none" xmlns="http://www.w3.org/2000/svg">
<path d="M125.588 41.3932V3.82662H104.881V22.3494L80.814 0.366547L-0.0302734 72.7276L12.2604 86.5813L24.7247 75.326V168.815H136.275V76.0207L148.539 87.276L161.157 73.7696L125.588 41.3932ZM112.068 104.089C113.798 105.752 113.003 108.658 110.719 109.212L102.757 111.256L105.008 119.151C105.629 121.436 103.485 123.547 101.234 122.919L93.4787 120.708L104.56 142.757L95.3156 140.126L92.7573 148.676L80.5 124.235L68.2428 148.676L65.6845 140.126L56.4398 142.757L67.5214 120.708L59.7663 122.919C57.4818 123.547 55.3711 121.396 55.9923 119.151L58.2433 111.256L50.2811 109.212C47.9967 108.658 47.2018 105.752 48.9318 104.089L54.7432 98.3776L48.8984 92.6665C47.1617 91.0032 47.9633 88.0976 50.2477 87.5432L58.2099 85.4992L55.9589 77.6105C55.3377 75.326 57.4818 73.2152 59.7329 73.8364L67.6216 76.0875L69.6656 68.1253C70.22 65.8409 73.1991 65.0794 74.7889 66.776L80.5 72.6608L86.2112 66.776C87.841 65.046 90.7801 65.8743 91.3345 68.1253L93.3785 76.0875L101.267 73.8364C103.552 73.2152 105.669 75.3594 105.041 77.6105L102.79 85.4992L110.752 87.5432C113.037 88.0976 113.838 91.0032 112.102 92.6665L106.257 98.3776L112.068 104.089ZM81.1947 79.2336C70.6007 79.2336 62.0507 87.8237 62.0507 98.411C62.0507 109.005 70.6007 117.555 81.1947 117.555C91.782 117.555 100.332 108.972 100.332 98.3776C100.332 87.7836 91.7152 79.2336 81.1947 79.2336ZM92.0626 91.2838L78.9103 109.459L70.4939 100.315C69.5587 99.2794 69.5988 97.723 70.6007 96.7144C71.6361 95.7859 73.1991 95.8193 74.2011 96.8212L78.4561 101.424L87.9412 88.338C88.7762 87.2359 90.3325 86.9219 91.5082 87.7502C92.617 88.5451 92.8909 90.1749 92.0626 91.2838Z" fill="white"/>
</svg>
