<svg width="35" height="36" viewBox="0 0 35 36" fill="none" xmlns="http://www.w3.org/2000/svg">
<g clip-path="url(#clip0_617_10827)">
<path fill-rule="evenodd" clip-rule="evenodd" d="M17.4945 0.511475C12.7433 0.511475 12.1475 0.531613 10.2815 0.616752C8.41944 0.701683 7.14771 0.997447 6.03493 1.42995C4.88451 1.87696 3.90889 2.47516 2.93625 3.44772C1.96367 4.42036 1.36549 5.39598 0.918471 6.5464C0.485972 7.65919 0.190209 8.93093 0.105278 10.793C0.0201389 12.659 0 13.2547 0 18.0061C0 22.7572 0.0201389 23.3529 0.105278 25.219C0.190209 27.081 0.485972 28.3528 0.918471 29.4655C1.36549 30.616 1.96367 31.5916 2.93625 32.5642C3.90889 33.5367 4.88451 34.1349 6.03493 34.5821C7.14771 35.0145 8.41944 35.3102 10.2815 35.3952C12.1475 35.4803 12.7433 35.5004 17.4945 35.5004C22.2457 35.5004 22.8414 35.4803 24.7074 35.3952C26.5695 35.3102 27.8412 35.0145 28.954 34.5821C30.1044 34.1349 31.08 33.5367 32.0527 32.5642C33.0253 31.5916 33.6235 30.616 34.0706 29.4655C34.503 28.3528 34.7987 27.081 34.8836 25.219C34.9688 23.3529 34.9889 22.7572 34.9889 18.0061C34.9889 13.2547 34.9688 12.659 34.8836 10.793C34.7987 8.93093 34.503 7.65919 34.0706 6.5464C33.6235 5.39598 33.0253 4.42036 32.0527 3.44772C31.08 2.47516 30.1044 1.87696 28.954 1.42995C27.8412 0.997447 26.5695 0.701683 24.7074 0.616752C22.8414 0.531613 22.2457 0.511475 17.4945 0.511475ZM11.663 18.0061C11.663 21.2266 14.2738 23.8375 17.4945 23.8375C20.7152 23.8375 23.326 21.2266 23.326 18.0061C23.326 14.7853 20.7152 12.1745 17.4945 12.1745C14.2738 12.1745 11.663 14.7853 11.663 18.0061ZM8.51083 18.0061C8.51083 13.0444 12.5329 9.0223 17.4945 9.0223C22.456 9.0223 26.4781 13.0444 26.4781 18.0061C26.4781 22.9675 22.456 26.9895 17.4945 26.9895C12.5329 26.9895 8.51083 22.9675 8.51083 18.0061ZM26.833 10.7667C27.9926 10.7667 28.9325 9.82682 28.9325 8.66738C28.9325 7.50793 27.9926 6.568 26.833 6.568C25.6737 6.568 24.7338 7.50793 24.7338 8.66738C24.7338 9.82682 25.6737 10.7667 26.833 10.7667Z" fill="#D9D9D9"/>
</g>
<defs>
<clipPath id="clip0_617_10827">
<rect width="35" height="35" fill="white" transform="translate(0 0.5)"/>
</clipPath>
</defs>
</svg>
