<svg width="16" height="21" viewBox="0 0 16 21" fill="none" xmlns="http://www.w3.org/2000/svg">
<path fill-rule="evenodd" clip-rule="evenodd" d="M8 6.125C6.96438 6.125 6.125 6.96438 6.125 8C6.125 9.03562 6.96438 9.875 8 9.875C9.03562 9.875 9.875 9.03562 9.875 8C9.875 6.96438 9.03562 6.125 8 6.125ZM8 11.125C6.27437 11.125 4.875 9.72625 4.875 8C4.875 6.27375 6.27437 4.875 8 4.875C9.72563 4.875 11.125 6.27375 11.125 8C11.125 9.72625 9.72563 11.125 8 11.125ZM8 0.5C3.85813 0.5 0.5 3.85813 0.5 8C0.5 11.1363 6.75313 20.5069 8 20.5C9.2275 20.5069 15.5 11.0938 15.5 8C15.5 3.85813 12.1419 0.5 8 0.5Z" fill="#4E23CB"/>
</svg>
