<svg width="76" height="172" viewBox="0 0 76 172" fill="none" xmlns="http://www.w3.org/2000/svg">
<path d="M38.4181 33.7195V0.150726H-42.0133C-49.924 0.150726 -56.8369 6.68144 -56.8369 14.5916V156.71C-56.8369 164.62 -49.9235 171.151 -42.0133 171.151H61.8491C69.7593 171.151 75.7168 164.62 75.7168 156.71V38.0232H42.9129C40.5355 38.0232 38.4181 36.0969 38.4181 33.7195ZM30.9584 107.376C30.9584 113.704 26.288 118.933 19.9599 118.933H-0.12402C-6.45217 118.933 -12.0785 113.705 -12.0785 107.376V87.2924C-12.0785 84.1439 -10.9309 81.3086 -8.63557 79.2526V70.9683C-8.63557 60.8971 -0.215258 52.9421 9.8571 52.9421H9.97933C20.0517 52.9421 28.0898 60.8971 28.0898 70.9683V79.5791C29.8113 81.6047 30.959 84.3034 30.959 87.2919L30.9584 107.376Z" fill="white"/>
</svg>
