<svg width="83" height="48" viewBox="0 0 83 48" fill="none" xmlns="http://www.w3.org/2000/svg">
<g clip-path="url(#clip0_4801_9055)">
<path d="M12.4705 19.4954C12.4721 19.0269 12.8526 18.6496 13.3211 18.6496C15.4989 18.6543 17.6137 18.6575 19.7285 18.6638C21.0572 18.667 22.2255 18.2141 22.8387 17.0273C23.5525 15.647 23.8638 14.1489 22.9283 12.6963C22.1987 11.5644 21.1216 11.0614 19.7883 11.0614C17.7757 11.0614 15.7615 11.0535 13.7488 11.0488C13.6293 11.0488 13.5083 11.0488 13.3856 11.0472C12.917 11.0456 12.5397 10.6667 12.5397 10.1983L12.5554 2.47171C12.5569 1.9938 12.9532 1.61023 13.4297 1.62752C16.7017 1.74699 19.9817 1.6118 23.1091 2.2359C29.1202 3.4338 33.133 9.19533 32.7289 15.3184C32.3751 20.6838 29.4395 24.221 24.6893 26.425C24.6862 26.4265 24.6831 26.4281 24.6783 26.4297C24.139 26.6781 24.0038 27.3807 24.4236 27.8021C27.5652 30.9556 30.6832 34.084 33.927 37.3397C34.46 37.8742 34.0811 38.7875 33.3264 38.7859L30.732 38.7797C28.3655 38.775 25.9976 38.8017 23.6327 38.7372C23.1767 38.7246 22.6044 38.4731 22.2993 38.1367C19.1688 34.6829 16.0806 31.193 12.9909 27.7014C12.7661 27.4484 12.4783 27.1198 12.4751 26.8243C12.4469 24.4206 12.4626 22.0154 12.4705 19.4954Z" fill="white"/>
<path d="M1.24149 27.9784L8.62376 27.9941C9.19923 27.9957 9.66623 27.5304 9.66777 26.955L9.68356 19.5742C9.6851 18.9989 9.21965 18.532 8.64419 18.5304L1.26192 18.5147C0.68644 18.5131 0.219447 18.9785 0.217874 19.5538L0.202152 26.9346C0.200579 27.5115 0.666 27.9784 1.24149 27.9784Z" fill="white"/>
<path d="M10.3324 5.66907L5.33221 2.18384C5.25203 2.12882 5.14196 2.12882 5.06177 2.18384L0.0883748 5.64706C-0.0814408 5.76496 0.0097567 6.01178 0.223599 6.01335L1.31325 6.01492L1.30225 11.1052L9.09957 11.1225L9.11063 6.03222L10.1971 6.03379C10.4094 6.03536 10.5022 5.78698 10.3324 5.66907Z" fill="white"/>
<path d="M47.4178 38.5497C45.0222 38.5497 42.913 38.0811 41.0903 37.1439C39.2936 36.2066 37.9005 34.931 36.911 33.3169C35.9215 31.6767 35.4268 29.8153 35.4268 27.7326C35.4268 25.6239 35.9085 23.7624 36.8719 22.1483C37.8614 20.5082 39.2024 19.2325 40.895 18.3214C42.5875 17.3841 44.5014 16.9155 46.6366 16.9155C48.6937 16.9155 50.5425 17.3581 52.183 18.2433C53.8495 19.1024 55.1645 20.352 56.1279 21.9921C57.0914 23.6062 57.5731 25.5458 57.5731 27.8107C57.5731 28.045 57.5601 28.3184 57.5341 28.6308C57.508 28.9172 57.482 29.1905 57.4559 29.4508H40.3872V25.8972H54.2531L51.9096 26.9516C51.9096 25.8582 51.6882 24.9079 51.2456 24.1009C50.8029 23.2938 50.191 22.669 49.4098 22.2264C48.6286 21.7578 47.7173 21.5235 46.6757 21.5235C45.6341 21.5235 44.7097 21.7578 43.9025 22.2264C43.1213 22.669 42.5094 23.3068 42.0668 24.1399C41.6241 24.947 41.4028 25.9102 41.4028 27.0297V27.9669C41.4028 29.1124 41.6501 30.1277 42.1449 31.0129C42.6657 31.872 43.3817 32.5359 44.2931 33.0045C45.2305 33.4471 46.3242 33.6683 47.5741 33.6683C48.6937 33.6683 49.6702 33.4991 50.5035 33.1607C51.3628 32.8222 52.1439 32.3146 52.847 31.6377L56.0889 35.1523C55.1254 36.2457 53.9146 37.0918 52.4564 37.6906C50.9982 38.2633 49.3187 38.5497 47.4178 38.5497ZM73.947 38.2373V34.1369L73.5564 33.2388V25.8972C73.5564 24.5955 73.1528 23.5802 72.3456 22.8513C71.5644 22.1223 70.3536 21.7578 68.7131 21.7578C67.5934 21.7578 66.4867 21.9401 65.3931 22.3045C64.3255 22.643 63.4141 23.1116 62.659 23.7104L60.4717 19.4538C61.6174 18.6468 62.9975 18.022 64.6119 17.5794C66.2263 17.1368 67.8668 16.9155 69.5333 16.9155C72.7362 16.9155 75.2229 17.6705 76.9936 19.1805C78.7642 20.6904 79.6496 23.0465 79.6496 26.2487V38.2373H73.947ZM67.5413 38.5497C65.9009 38.5497 64.4947 38.2763 63.323 37.7296C62.1512 37.1569 61.2529 36.3889 60.6279 35.4256C60.003 34.4624 59.6905 33.382 59.6905 32.1844C59.6905 30.9348 59.99 29.8414 60.5889 28.9041C61.2138 27.9669 62.1903 27.238 63.5183 26.7173C64.8463 26.1706 66.5779 25.8972 68.7131 25.8972H74.2985V29.4508H69.3771C67.9449 29.4508 66.9554 29.6852 66.4086 30.1538C65.8878 30.6224 65.6274 31.2081 65.6274 31.9111C65.6274 32.6921 65.9269 33.3169 66.5258 33.7855C67.1507 34.2281 67.997 34.4494 69.0646 34.4494C70.0802 34.4494 70.9915 34.2151 71.7987 33.7464C72.606 33.2518 73.1918 32.5359 73.5564 31.5986L74.4938 34.4103C74.0511 35.7641 73.2439 36.7924 72.0722 37.4953C70.9004 38.1982 69.3901 38.5497 67.5413 38.5497Z" fill="white"/>
</g>
<defs>
<clipPath id="clip0_4801_9055">
<rect width="83" height="48" fill="white"/>
</clipPath>
</defs>
</svg>
