<svg width="56" height="111" viewBox="0 0 56 111" fill="none" xmlns="http://www.w3.org/2000/svg">
<path d="M82.7407 27.4205V3.0352H69.0984V15.0588L53.2426 0.789185L-0.0195312 47.7604L8.07782 56.7531L16.2896 49.4471V110.133H89.7819V49.898L97.8616 57.2041L106.175 48.4368L82.7407 27.4205ZM73.8336 68.1176C74.9734 69.1973 74.4497 71.0834 72.9447 71.4433L67.699 72.7701L69.182 77.8952C69.5913 79.3781 68.1787 80.7482 66.6956 80.3406L61.5864 78.9054L68.8872 93.2184L62.7966 91.51L61.1111 97.06L53.0357 81.1948L44.9604 97.06L43.2749 91.51L37.1843 93.2184L44.4851 78.9054L39.3759 80.3406C37.8708 80.7482 36.4802 79.352 36.8894 77.8952L38.3725 72.7701L33.1268 71.4433C31.6218 71.0834 31.0981 69.1973 32.2379 68.1176L36.0665 64.4104L32.2159 60.7032C31.0717 59.6235 31.5998 57.7374 33.1048 57.3775L38.3505 56.0507L36.8674 50.93C36.4582 49.4471 37.8708 48.0769 39.3539 48.4802L44.5511 49.9414L45.8977 44.7729C46.263 43.29 48.2257 42.7957 49.2731 43.8971L53.0357 47.717L56.7984 43.8971C57.8721 42.7741 59.8085 43.3117 60.1737 44.7729L61.5204 49.9414L66.7176 48.4802C68.2227 48.0769 69.6177 49.4688 69.204 50.93L67.721 56.0507L72.9667 57.3775C74.4717 57.7374 74.9998 59.6235 73.8556 60.7032L70.005 64.4104L73.8336 68.1176ZM53.4934 51.9836C46.5138 51.9836 40.8809 57.5596 40.8809 64.4321C40.8809 71.3089 46.5138 76.8589 53.4934 76.8589C60.4686 76.8589 66.1015 71.2872 66.1015 64.4104C66.1015 57.5336 60.4246 51.9836 53.4934 51.9836ZM60.6534 59.8056L51.9884 71.6037L46.4434 65.6678C45.8273 64.9958 45.8537 63.9855 46.5138 63.3307C47.196 62.7281 48.2257 62.7497 48.8858 63.4001L51.6891 66.3876L57.9382 57.8935C58.4882 57.1781 59.5136 56.9743 60.2881 57.5119C61.0187 58.0279 61.1991 59.0859 60.6534 59.8056Z" fill="white"/>
</svg>
