<svg width="50" height="111" viewBox="0 0 50 111" fill="none" xmlns="http://www.w3.org/2000/svg">
<path d="M12.7137 49.1678V45.9697C12.7137 42.513 9.98777 39.8557 6.51169 39.8557H6.43192C2.95622 39.8557 -0.0195312 42.513 -0.0195312 45.9697V49.1678H12.7137Z" fill="white"/>
<path d="M30.6895 18.9966H49.4929L30.6895 0V18.9966Z" fill="white"/>
<path d="M25.0727 21.7903V0H-27.4194C-32.5822 0 -37.0938 4.23923 -37.0938 9.37391V101.626C-37.0938 106.761 -32.5818 111 -27.4194 111H40.3645C45.527 111 49.415 106.761 49.415 101.626V24.5839H28.0061C26.4546 24.5839 25.0727 23.3335 25.0727 21.7903ZM20.2042 69.6026C20.2042 73.7104 17.1562 77.104 13.0263 77.104H-0.0811234C-4.21107 77.104 -7.88301 73.7107 -7.88301 69.6026V56.5657C-7.88301 54.5219 -7.13402 52.6814 -5.63603 51.3468V45.9693C-5.63603 39.4318 -0.140671 34.2681 6.43287 34.2681H6.51264C13.0862 34.2681 18.3321 39.4318 18.3321 45.9693V51.5588C19.4556 52.8736 20.2046 54.6254 20.2046 56.5653L20.2042 69.6026Z" fill="white"/>
<path d="M1.01367 60.0513C1.01367 61.9126 1.85442 63.5523 3.35241 64.5152V68.8233C3.35241 70.2943 4.68299 71.4851 6.16188 71.4851C7.64002 71.4851 8.96986 70.2943 8.96986 68.8233V64.7413C10.8423 63.8242 11.8078 62.068 11.8078 60.051C11.8078 57.0864 9.39117 54.6827 6.41055 54.6827C3.4303 54.6831 1.01367 57.0867 1.01367 60.0513Z" fill="white"/>
</svg>
