<svg width="185" height="233" viewBox="0 0 185 233" fill="none" xmlns="http://www.w3.org/2000/svg">
<path d="M99.4995 116.85C99.512 113.786 102.548 111.319 106.287 111.319C123.665 111.35 140.541 111.371 157.417 111.412C168.019 111.432 177.342 108.471 182.235 100.71C187.932 91.6837 190.416 81.8865 182.95 72.3875C177.128 64.9857 168.534 61.696 157.894 61.696C141.833 61.696 125.761 61.6446 109.7 61.6137C108.747 61.6137 107.781 61.6137 106.802 61.6035C103.063 61.5932 100.052 59.1156 100.052 56.0521L100.177 5.52421C100.19 2.39899 103.351 -0.109405 107.153 0.00367896C133.264 0.784985 159.437 -0.0991294 184.393 3.98216C232.361 11.8158 264.381 49.4932 261.157 89.5351C258.333 124.622 234.908 147.753 197.003 162.166C196.978 162.176 196.953 162.186 196.915 162.197C192.612 163.821 191.533 168.416 194.883 171.171C219.952 191.794 244.833 212.251 270.717 233.542C274.971 237.037 271.947 243.01 265.924 243L245.222 242.959C226.338 242.928 207.442 243.103 188.571 242.681C184.933 242.599 180.366 240.954 177.931 238.754C152.95 216.168 128.308 193.346 103.653 170.513C101.858 168.858 99.5622 166.71 99.5371 164.777C99.3113 149.058 99.4367 133.329 99.4995 116.85Z" fill="white" fill-opacity="0.2"/>
<path d="M9.89695 172.322L68.8057 172.425C73.3979 172.436 77.1244 169.393 77.137 165.63L77.2625 117.364C77.275 113.601 73.5611 110.548 68.9688 110.538L10.0601 110.435C5.4678 110.425 1.74131 113.468 1.72876 117.23L1.6033 165.496C1.59076 169.269 5.3047 172.322 9.89695 172.322Z" fill="white" fill-opacity="0.2"/>
<path d="M82.4497 26.4329L42.5498 3.64144C41.9099 3.28163 41.0316 3.28163 40.3917 3.64144L0.705211 26.289C-0.649878 27.06 0.0778555 28.6741 1.78426 28.6843L10.4794 28.6946L10.3916 61.9823L72.6127 62.0954L72.7006 28.8077L81.3706 28.818C83.0645 28.8283 83.8048 27.204 82.4497 26.4329Z" fill="white" fill-opacity="0.2"/>
</svg>
