<svg width="48" height="111" viewBox="0 0 48 111" fill="none" xmlns="http://www.w3.org/2000/svg">
<g clip-path="url(#clip0_571_13070)">
<path d="M74.0993 13.0978H15.1875V94.1035H74.0993V13.0978Z" fill="black"/>
<path d="M66.5288 6.9375C70.3521 6.9375 73.4613 10.049 73.4613 13.875V97.125C73.4613 100.951 70.3521 104.062 66.5288 104.062H23.6344C19.8112 104.062 16.702 100.951 16.702 97.125V13.875C16.702 10.049 19.8112 6.9375 23.6344 6.9375H66.5288ZM66.5288 0H23.6344C16.0087 0 9.76953 6.24375 9.76953 13.875V97.125C9.76953 104.756 16.0087 111 23.6344 111H66.5288C74.1545 111 80.3937 104.756 80.3937 97.125V13.875C80.3937 6.24375 74.158 0 66.5288 0Z" fill="white"/>
<path d="M75.8463 91.6582H15.1875V104.93H75.8463V91.6582Z" fill="black"/>
<path d="M75.8463 5.37309H15.1875V13.098H75.8463V5.37309Z" fill="black"/>
<path d="M38.2188 101.357H52.0836" stroke="white" stroke-width="2" stroke-miterlimit="10" stroke-linecap="round" stroke-linejoin="round"/>
<path d="M45.084 9.14368C46.5198 9.14368 47.6837 7.97892 47.6837 6.54211C47.6837 5.10531 46.5198 3.94055 45.084 3.94055C43.6483 3.94055 42.4844 5.10531 42.4844 6.54211C42.4844 7.97892 43.6483 9.14368 45.084 9.14368Z" fill="white"/>
<path d="M45.5165 28.7352L27.3848 41.7152V47.3381L45.5165 34.358L63.6483 47.3381V41.7152L45.5165 28.7352Z" fill="white"/>
<path d="M30.4199 71.9523V50.3455L45.5153 39.464L60.6107 50.3455V71.9523H30.4199Z" fill="white"/>
</g>
<defs>
<clipPath id="clip0_571_13070">
<rect width="48" height="111" fill="white"/>
</clipPath>
</defs>
</svg>
