<svg width="29" height="31" viewBox="0 0 29 31" fill="none" xmlns="http://www.w3.org/2000/svg">
<path d="M10.4007 14.9068C10.402 14.516 10.7194 14.2012 11.1102 14.2012C12.9266 14.2051 14.6906 14.2078 16.4545 14.213C17.5627 14.2156 18.5371 13.8379 19.0486 12.8478C19.644 11.6963 19.9037 10.4464 19.1234 9.23462C18.5148 8.29035 17.6165 7.87068 16.5043 7.87068C14.8256 7.87068 13.1456 7.86412 11.4669 7.86019C11.3673 7.86019 11.2663 7.86019 11.164 7.85888C10.7732 7.85756 10.4584 7.5415 10.4584 7.15067L10.4715 0.704735C10.4728 0.306044 10.8033 -0.013957 11.2007 0.000469333C13.9299 0.100142 16.6657 -0.0126461 19.2742 0.508013C24.288 1.50736 27.6349 6.31395 27.2979 11.4222C27.0028 15.8983 24.5542 18.8491 20.5922 20.6878C20.5896 20.6891 20.587 20.6904 20.5831 20.6917C20.1332 20.899 20.0204 21.4852 20.3706 21.8367C22.9909 24.4675 25.5916 27.0774 28.2972 29.7934C28.7418 30.2393 28.4257 31.0013 27.7962 31L25.6323 30.9948C23.6585 30.9908 21.6834 31.0131 19.7109 30.9593C19.3306 30.9489 18.8532 30.739 18.5988 30.4584C15.9876 27.577 13.4119 24.6655 10.8348 21.7527C10.6473 21.5416 10.4073 21.2675 10.4046 21.0209C10.381 19.0157 10.3941 17.0091 10.4007 14.9068Z" fill="#4E23CB"/>
<path d="M1.03535 21.9835L7.19277 21.9966C7.67277 21.9979 8.06228 21.6097 8.06359 21.1297L8.07671 14.9723C8.07802 14.4923 7.68982 14.1028 7.20982 14.1015L1.0524 14.0884C0.572396 14.0871 0.182885 14.4753 0.181574 14.9553L0.16846 21.1127C0.167149 21.594 0.555348 21.9835 1.03535 21.9835Z" fill="#4E23CB"/>
<path d="M8.61802 3.37216L4.44751 0.464602C4.38062 0.4187 4.28882 0.4187 4.22193 0.464602L0.0737119 3.3538C-0.0679283 3.45216 0.00813781 3.65806 0.1865 3.65938L1.09536 3.66069L1.08618 7.90727L7.58982 7.9217L7.599 3.67511L8.50524 3.67643C8.68229 3.67774 8.75966 3.47052 8.61802 3.37216Z" fill="#4E23CB"/>
</svg>
