<svg width="76" height="82" viewBox="0 0 76 82" fill="none" xmlns="http://www.w3.org/2000/svg">
<path d="M27.5097 39.4309C27.5132 38.3971 28.3527 37.5645 29.3865 37.5645C34.1912 37.5749 38.8571 37.5818 43.523 37.5957C46.4544 37.6026 49.0319 36.6035 50.3849 33.9844C51.9598 30.9385 52.6467 27.6325 50.5826 24.4271C48.973 21.9293 46.5966 20.8192 43.6549 20.8192C39.2144 20.8192 34.7705 20.8019 30.3301 20.7915C30.0665 20.7915 29.7993 20.7915 29.5287 20.788C28.495 20.7845 27.6624 19.9485 27.6624 18.9147L27.6971 1.86414C27.7005 0.809536 28.5747 -0.0369185 29.6259 0.00124146C36.845 0.264892 44.0816 -0.0334511 50.9816 1.34378C64.2439 3.98722 73.097 16.7014 72.2054 30.2135C71.4249 42.0535 64.9481 49.8589 54.468 54.7226C54.4611 54.726 54.4541 54.7295 54.4437 54.733C53.2538 55.2811 52.9555 56.8318 53.8817 57.7615C60.813 64.7205 67.6922 71.624 74.8489 78.8084C76.0249 79.9879 75.1888 82.0035 73.5237 82L67.7997 81.9861C62.5787 81.9757 57.3543 82.0347 52.1368 81.8924C51.1307 81.8647 49.868 81.3096 49.195 80.5673C42.288 72.9457 35.4748 65.2443 28.658 57.5395C28.1619 56.9809 27.5271 56.2559 27.5201 55.6037C27.4577 50.2995 27.4924 44.9918 27.5097 39.4309Z" fill="#F0EBFF" fill-opacity="0.7"/>
<path d="M2.73656 58.15L19.0239 58.1847C20.2936 58.1882 21.3239 57.1613 21.3274 55.8916L21.3621 39.6043C21.3655 38.3346 20.3387 37.3043 19.069 37.3008L2.78165 37.2661C1.51197 37.2627 0.481647 38.2895 0.478178 39.5592L0.44349 55.8465C0.440021 57.1197 1.46687 58.15 2.73656 58.15Z" fill="#F0EBFF" fill-opacity="0.7"/>
<path d="M22.7961 8.91972L11.7644 1.22876C11.5875 1.10734 11.3446 1.10734 11.1677 1.22876L0.19498 8.87115C-0.179681 9.13133 0.0215258 9.67598 0.493321 9.67945L2.89739 9.68292L2.87311 20.9158L20.0763 20.954L20.1006 9.72108L22.4977 9.72455C22.9661 9.72802 23.1707 9.1799 22.7961 8.91972Z" fill="#F0EBFF" fill-opacity="0.7"/>
</svg>
