<svg width="84" height="111" viewBox="0 0 84 111" fill="none" xmlns="http://www.w3.org/2000/svg">
<g clip-path="url(#clip0_571_13061)">
<path d="M-24.2755 34.9245C-16.2881 37.6913 -5.7002 39.2153 5.53807 39.2153C16.7763 39.2153 27.3643 37.6913 35.3517 34.9245C43.8645 31.9754 48.5527 27.8377 48.5527 23.2738C48.5527 18.7098 43.8645 14.5722 35.3517 11.623C27.3643 8.85623 16.7763 7.33228 5.53807 7.33228C-5.7002 7.33228 -16.2884 8.85623 -24.2755 11.623C-32.7884 14.5719 -37.4766 18.7098 -37.4766 23.2738C-37.4766 27.8377 -32.7884 31.9751 -24.2755 34.9245Z" fill="white"/>
<path d="M52.8383 59.6086H40.8238C39.0804 59.6086 37.6621 61.0334 37.6621 62.7848V63.4201C37.6621 65.1714 39.0804 66.5963 40.8238 66.5963H52.8383C54.5816 66.5963 56 65.1714 56 63.4201V62.7848C56 61.0338 54.5816 59.6086 52.8383 59.6086Z" fill="white"/>
<path d="M73.0158 62.5939C73.0158 48.237 61.3892 36.5568 47.098 36.5568C38.9778 36.5568 31.7214 40.3304 26.9656 46.2208C20.3503 47.4338 13.0575 48.0681 5.53839 48.0681C-6.77991 48.0681 -18.4861 46.3631 -27.4239 43.2669C-30.0836 42.3454 -30.7042 42.0894 -31.5885 41.6343C-32.5377 41.1356 -33.4217 40.8828 -34.2156 40.8828C-35.9359 40.8828 -36.9928 42.0393 -37.2767 43.1856C-37.4095 43.7198 -37.4766 44.2652 -37.4766 44.8057C-37.4766 49.3697 -32.7881 53.5073 -24.2755 56.4565C-16.2881 59.2233 -5.7002 60.7472 5.53807 60.7472C10.979 60.7472 16.3476 60.3798 21.3469 59.6769C21.24 60.6351 21.18 61.6077 21.18 62.5942C21.18 64.5721 21.4079 66.4965 21.8259 68.3492C16.6205 69.0404 11.1634 69.3917 5.53807 69.3917C-6.7796 69.3917 -18.4858 67.6863 -27.4246 64.5902C-30.0836 63.6691 -30.7045 63.4131 -31.5888 62.9579C-32.5383 62.4592 -33.422 62.2061 -34.2162 62.2061C-35.9365 62.2061 -36.9935 63.3629 -37.2774 64.5092C-37.4095 65.0431 -37.4766 65.5881 -37.4766 66.1287C-37.4766 70.6927 -32.7881 74.8303 -24.2755 77.7798C-16.2881 80.5466 -5.7002 82.0705 5.53807 82.0705C13.387 82.0705 21.0949 81.2997 27.7326 79.8732C30.3084 82.7836 33.5204 85.1121 37.15 86.6335C28.3981 89.4451 17.2471 90.9888 5.53807 90.9888C-6.7796 90.9888 -18.4858 89.2834 -27.4242 86.1873C-30.0836 85.2658 -30.7045 85.0098 -31.5888 84.555C-32.5383 84.0563 -33.422 83.8032 -34.2162 83.8032C-35.9365 83.8032 -36.9931 84.9596 -37.2774 86.1059C-37.4095 86.6402 -37.4766 87.1855 -37.4766 87.7261C-37.4766 92.2901 -32.7884 96.4277 -24.2755 99.3769C-16.2881 102.144 -5.7002 103.668 5.53807 103.668C16.7763 103.668 27.3643 102.144 35.3517 99.3769C43.3229 96.6155 47.9403 92.8119 48.4958 88.592C62.1392 87.8595 73.0158 76.4794 73.0158 62.5939ZM47.098 79.102C38.0369 79.102 30.6654 71.6967 30.6654 62.5936C30.6654 53.4908 38.0369 46.0851 47.098 46.0851C56.1591 46.0851 63.5306 53.4908 63.5306 62.5936C63.5306 71.6967 56.1588 79.102 47.098 79.102Z" fill="white"/>
</g>
<defs>
<clipPath id="clip0_571_13061">
<rect width="84" height="111" fill="white"/>
</clipPath>
</defs>
</svg>
