<svg width="130" height="171" viewBox="0 0 130 171" fill="none" xmlns="http://www.w3.org/2000/svg">
<g clip-path="url(#clip0_1228_41179)">
<path d="M-37.5698 53.8026C-25.2083 58.065 -8.82228 60.4127 8.57027 60.4127C25.9628 60.4127 42.3489 58.065 54.7104 53.8026C67.885 49.2593 75.1405 42.8851 75.1405 35.8542C75.1405 28.8233 67.885 22.449 54.7104 17.9058C42.3489 13.6434 25.9628 11.2957 8.57027 11.2957C-8.82228 11.2957 -25.2088 13.6434 -37.5698 17.9058C-50.7445 22.4485 -58 28.8233 -58 35.8542C-58 42.8851 -50.7445 49.2588 -37.5698 53.8026Z" fill="white"/>
<path d="M81.7721 91.8294H63.1783C60.4802 91.8294 58.2852 94.0245 58.2852 96.7225V97.7011C58.2852 100.399 60.4802 102.594 63.1783 102.594H81.7721C84.4701 102.594 86.6652 100.399 86.6652 97.7011V96.7225C86.6652 94.0249 84.4701 91.8294 81.7721 91.8294Z" fill="white"/>
<path d="M113 96.4284C113 74.3111 95.0066 56.3171 72.8892 56.3171C60.3223 56.3171 49.0921 62.1306 41.7319 71.2049C31.494 73.0736 20.2076 74.0507 8.57076 74.0507C-10.4933 74.0507 -28.61 71.4241 -42.4424 66.6543C-46.5584 65.2348 -47.519 64.8404 -48.8876 64.1393C-50.3565 63.371 -51.7246 62.9816 -52.9532 62.9816C-55.6156 62.9816 -57.2514 64.7631 -57.6908 66.5291C-57.8963 67.3521 -58 68.1922 -58 69.025C-58 76.0559 -50.744 82.4302 -37.5698 86.9734C-25.2083 91.2358 -8.82228 93.5835 8.57027 93.5835C16.9908 93.5835 25.2993 93.0174 33.0363 91.9346C32.8709 93.4108 32.778 94.9091 32.778 96.4289C32.778 99.4758 33.1307 102.441 33.7776 105.295C25.7216 106.359 17.2761 106.901 8.57027 106.901C-10.4928 106.901 -28.6095 104.274 -42.4433 99.5037C-46.5584 98.0847 -47.5194 97.6903 -48.8881 96.9892C-50.3575 96.2209 -51.7251 95.831 -52.9542 95.831C-55.6166 95.831 -57.2523 97.613 -57.6917 99.379C-57.8963 100.201 -58 101.041 -58 101.874C-58 108.905 -50.744 115.279 -37.5698 119.823C-25.2083 124.085 -8.82228 126.433 8.57027 126.433C20.7174 126.433 32.6463 125.245 42.9189 123.048C46.9053 127.531 51.8763 131.119 57.4935 133.462C43.9489 137.794 26.6914 140.172 8.57027 140.172C-10.4928 140.172 -28.6095 137.545 -42.4428 132.775C-46.5584 131.355 -47.5194 130.961 -48.8881 130.26C-50.3575 129.492 -51.7251 129.102 -52.9542 129.102C-55.6166 129.102 -57.2518 130.884 -57.6917 132.65C-57.8963 133.473 -58 134.313 -58 135.146C-58 142.177 -50.7445 148.551 -37.5698 153.094C-25.2083 157.356 -8.82228 159.704 8.57027 159.704C25.9628 159.704 42.3489 157.356 54.7103 153.094C67.0469 148.84 74.1928 142.98 75.0525 136.479C96.1672 135.351 113 117.82 113 96.4284ZM72.8892 121.86C58.8661 121.86 47.4578 110.452 47.4578 96.4279C47.4578 82.4048 58.8661 70.996 72.8892 70.996C86.9124 70.996 98.3207 82.4048 98.3207 96.4279C98.3207 110.452 86.9119 121.86 72.8892 121.86Z" fill="white"/>
</g>
<defs>
<clipPath id="clip0_1228_41179">
<rect width="130" height="171" fill="white"/>
</clipPath>
</defs>
</svg>
