<svg width="74" height="172" viewBox="0 0 74 172" fill="none" xmlns="http://www.w3.org/2000/svg">
<g clip-path="url(#clip0_1228_41189)">
<path d="M114.235 20.4792H23.4131V145.272H114.235V20.4792Z" fill="black"/>
<path d="M102.564 10.989C108.459 10.989 113.252 15.7823 113.252 21.6765V149.926C113.252 155.821 108.459 160.614 102.564 160.614H36.4355C30.5414 160.614 25.748 155.821 25.748 149.926V21.6765C25.748 15.7823 30.5414 10.989 36.4355 10.989H102.564ZM102.564 0.301453H36.4355C24.6793 0.301453 15.0605 9.9202 15.0605 21.6765V149.926C15.0605 161.683 24.6793 171.301 36.4355 171.301H102.564C114.321 171.301 123.939 161.683 123.939 149.926V21.6765C123.939 9.9202 114.326 0.301453 102.564 0.301453Z" fill="white"/>
<path d="M116.929 141.505H23.4131V161.95H116.929V141.505Z" fill="black"/>
<path d="M116.929 8.57892H23.4131V20.4794H116.929V8.57892Z" fill="black"/>
<path d="M58.9219 156.446H80.2969" stroke="white" stroke-width="2" stroke-miterlimit="10" stroke-linecap="round" stroke-linejoin="round"/>
<path d="M69.5029 14.3876C71.7164 14.3876 73.5107 12.5933 73.5107 10.3798C73.5107 8.16637 71.7164 6.37201 69.5029 6.37201C67.2895 6.37201 65.4951 8.16637 65.4951 10.3798C65.4951 12.5933 67.2895 14.3876 69.5029 14.3876Z" fill="white"/>
<path d="M70.1709 44.5691L42.2178 64.5654V73.2277L70.1709 53.2314L98.1241 73.2277V64.5654L70.1709 44.5691Z" fill="white"/>
<path d="M46.8984 111.147V77.8607L70.1705 61.0974L93.4425 77.8607V111.147H46.8984Z" fill="white"/>
</g>
<defs>
<clipPath id="clip0_1228_41189">
<rect width="74" height="171" fill="white" transform="translate(0 0.301453)"/>
</clipPath>
</defs>
</svg>
