<svg width="232" height="297" viewBox="0 0 232 297" fill="none" xmlns="http://www.w3.org/2000/svg">
<path d="M114.577 142.722C114.592 138.98 118.088 135.966 122.393 135.966C142.401 136.004 161.831 136.029 181.261 136.079C193.468 136.104 204.202 132.488 209.836 123.008C216.395 111.983 219.255 100.017 210.66 88.4149C203.956 79.3742 194.061 75.3561 181.81 75.3561C163.319 75.3561 144.813 75.2933 126.322 75.2556C125.224 75.2556 124.112 75.2556 122.985 75.2431C118.68 75.2305 115.213 72.2044 115.213 68.4626L115.357 6.74733C115.372 2.93015 119.012 -0.133628 123.39 0.00449353C153.452 0.958788 183.587 -0.121078 212.321 4.86386C267.549 14.4319 304.416 60.4515 300.703 109.359C297.453 152.214 270.482 180.467 226.839 198.071C226.811 198.083 226.782 198.096 226.738 198.109C221.783 200.092 220.541 205.705 224.398 209.07C253.262 234.259 281.909 259.246 311.711 285.251C316.609 289.52 313.127 296.815 306.193 296.803L282.356 296.752C260.615 296.715 238.859 296.928 217.131 296.413C212.942 296.313 207.684 294.304 204.881 291.617C176.118 264.03 147.746 236.155 119.359 208.267C117.293 206.245 114.65 203.621 114.621 201.26C114.361 182.061 114.505 162.85 114.577 142.722Z" fill="white" fill-opacity="0.13"/>
<path d="M11.4011 210.476L79.2264 210.602C84.5138 210.615 88.8043 206.898 88.8187 202.302L88.9632 143.349C88.9777 138.754 84.7016 135.024 79.4142 135.012L11.5889 134.886C6.30153 134.874 2.01098 138.59 1.99654 143.186L1.85209 202.139C1.83764 206.747 6.11374 210.476 11.4011 210.476Z" fill="white" fill-opacity="0.13"/>
<path d="M94.9295 32.287L48.9903 4.44924C48.2535 4.00976 47.2423 4.00976 46.5055 4.44924L0.811953 32.1112C-0.748246 33.053 0.0896399 35.0243 2.05433 35.0369L12.0656 35.0494L11.9645 75.7074L83.6036 75.8456L83.7047 35.1876L93.6871 35.2001C95.6374 35.2127 96.4897 33.2288 94.9295 32.287Z" fill="white" fill-opacity="0.13"/>
</svg>
