<svg width="38" height="40" viewBox="0 0 38 40" fill="none" xmlns="http://www.w3.org/2000/svg">
<path d="M29.547 9.8813V1.0938H24.7032V5.42661L19.0735 0.284424L0.162598 17.211L3.0376 20.4516L5.95322 17.8188V39.6875H32.047V17.9813L34.9157 20.6141L37.8673 17.4547L29.547 9.8813ZM25.322 26.4563C24.247 27.5297 22.7501 27.9079 21.3751 27.6094L19.9563 29.0282L17.6345 28.5579L17.872 30.6266L16.0907 30.1688L16.3282 32.2157L14.4907 31.7469L14.7173 33.8266L11.5017 34.0579L11.422 31.0063L18.1142 24.3141C17.8267 22.9516 18.2157 21.4641 19.2782 20.4016C20.947 18.7344 23.6423 18.7172 25.322 20.3969C27.0001 22.075 26.9938 24.7829 25.322 26.4563ZM23.2407 21.1422C22.8688 21.5157 22.8735 22.1204 23.2407 22.4875C23.6079 22.8547 24.2079 22.8672 24.586 22.4875C24.9595 22.1141 24.9595 21.5157 24.586 21.1422C24.2142 20.7688 23.6142 20.7688 23.2407 21.1422Z" fill="#4E23CB"/>
</svg>
