<svg width="40" height="40" viewBox="0 0 40 40" fill="none" xmlns="http://www.w3.org/2000/svg">
<path d="M3.9843 39.3963H6.64613C7.79765 39.3963 8.73221 38.4617 8.73221 37.3102V30.4553C6.51262 30.7808 4.23045 30.9852 1.93576 31.0561C1.92325 31.0561 1.91073 31.0561 1.89404 31.0561V37.306C1.89822 38.4617 2.83278 39.3963 3.9843 39.3963Z" fill="#4E23CB"/>
<path d="M16.234 39.3963C17.3855 39.3963 18.32 38.4618 18.32 37.3102V28.1523C17.2144 28.5321 16.0671 28.8783 14.9114 29.1871C13.8767 29.4624 12.8087 29.7128 11.7448 29.9297C11.6613 29.9464 11.5737 29.9631 11.4861 29.9798V37.3061C11.4861 38.4576 12.4206 39.3922 13.5722 39.3922H16.234V39.3963H16.234Z" fill="#4E23CB"/>
<path d="M25.8131 39.3963C26.9646 39.3963 27.8992 38.4618 27.8992 37.3102V23.5254C27.6989 23.6589 27.4986 23.7882 27.2942 23.9134C25.5294 25.0232 23.606 26.0287 21.5741 26.9007C21.4073 26.9716 21.2362 27.0425 21.0652 27.1135V37.3061C21.0652 38.4576 21.9997 39.3922 23.1513 39.3922H25.8131V39.3963Z" fill="#4E23CB"/>
<path d="M37.4827 37.3101V13.2034C37.0613 14.0587 36.5731 14.9014 36.0224 15.7234C34.8083 17.5299 33.2897 19.2405 31.4998 20.805C31.2244 21.047 30.9407 21.2848 30.6487 21.5227V37.3143C30.6487 38.4658 31.5832 39.4004 32.7348 39.4004H35.3966C36.5481 39.3962 37.4827 38.4616 37.4827 37.3101Z" fill="#4E23CB"/>
<path d="M1.05138 29.7836C1.05556 29.7836 1.0639 29.7836 1.06807 29.7836C1.34761 29.7794 1.62297 29.7711 1.9025 29.7628C4.22223 29.6918 6.5044 29.4832 8.7365 29.1495C9.66272 29.0118 10.5764 28.8491 11.486 28.6655C12.529 28.4527 13.5595 28.2107 14.5776 27.9395C15.8626 27.5974 17.11 27.2136 18.32 26.7838C19.2587 26.4501 20.1766 26.0954 21.0694 25.7116C23.0428 24.8646 24.8953 23.9009 26.61 22.8203C27.0523 22.5408 27.4862 22.257 27.9034 21.965C28.8839 21.2849 29.8017 20.5715 30.6529 19.8288C32.3592 18.3394 33.7986 16.7248 34.9544 15.0017C36.1142 13.2744 36.9612 11.4804 37.4869 9.64044C37.7247 8.81018 37.8957 7.97574 38.0042 7.1288H38.9555C39.7941 7.1288 40.2906 6.18589 39.8149 5.49331L36.7484 1.04996C36.5398 0.749563 36.2144 0.599365 35.8889 0.599365C35.5635 0.599365 35.238 0.749563 35.0294 1.04996L31.9671 5.49331C31.4915 6.18589 31.9837 7.1288 32.8266 7.1288H33.782C33.4566 9.0313 32.6889 10.8921 31.4873 12.6778C31.2244 13.0658 30.9449 13.4496 30.6486 13.8251C29.8601 14.8264 28.9423 15.7818 27.8992 16.6914C26.8479 17.6093 25.6755 18.4771 24.3821 19.2948C23.3349 19.954 22.2292 20.5673 21.0652 21.1305C20.1807 21.5603 19.2629 21.9608 18.3158 22.3321C16.7888 22.9329 15.1783 23.4586 13.4969 23.9092C12.8294 24.0886 12.1577 24.2513 11.4776 24.4015C10.5723 24.6018 9.65438 24.777 8.72816 24.9272C6.50023 25.2902 4.21805 25.5113 1.89416 25.5906C1.60628 25.5989 1.3184 25.6072 1.02635 25.6115C0.458938 25.624 0 26.0829 0 26.6545V28.7406C0.00834432 29.3163 0.475626 29.7836 1.05138 29.7836Z" fill="#4E23CB"/>
</svg>
