<svg width="19" height="20" viewBox="0 0 19 20" fill="none" xmlns="http://www.w3.org/2000/svg">
<path d="M3.608 18H1.5C1.23478 18 0.98043 18.1054 0.792893 18.2929C0.605357 18.4804 0.5 18.7348 0.5 19C0.5 19.2652 0.605357 19.5196 0.792893 19.7071C0.98043 19.8946 1.23478 20 1.5 20H17.5C17.7652 20 18.0196 19.8946 18.2071 19.7071C18.3946 19.5196 18.5 19.2652 18.5 19C18.5 18.7348 18.3946 18.4804 18.2071 18.2929C18.0196 18.1054 17.7652 18 17.5 18H15.392C15.145 15.226 14.321 10.39 11.566 9C14.13 7.577 15.019 4.19 15.33 2H17.5C17.7652 2 18.0196 1.89464 18.2071 1.70711C18.3946 1.51957 18.5 1.26522 18.5 1C18.5 0.734783 18.3946 0.48043 18.2071 0.292893C18.0196 0.105357 17.7652 0 17.5 0H1.5C1.23478 0 0.98043 0.105357 0.792893 0.292893C0.605357 0.48043 0.5 0.734783 0.5 1C0.5 1.26522 0.605357 1.51957 0.792893 1.70711C0.98043 1.89464 1.23478 2 1.5 2H3.67C3.981 4.19 4.87 7.577 7.434 9C4.679 10.39 3.855 15.226 3.608 18ZM6.5 14.6C6.5 13.4 9.5 11 9.5 11C9.5 11 12.5 13.4 12.5 14.6V18H6.5V14.6Z" fill="#FFB800"/>
</svg>
