<svg width="214" height="222" viewBox="0 0 214 222" fill="none" xmlns="http://www.w3.org/2000/svg">
<mask id="path-1-outside-1_1228_41395" maskUnits="userSpaceOnUse" x="-56.7541" y="-33.165" width="271.569" height="285.846" fill="black">
<rect fill="white" x="-56.7541" y="-33.165" width="271.569" height="285.846"/>
<path d="M73.5276 187.094C89.9282 196.788 117.392 189.588 144.816 179.734C154.363 162.779 147.012 149.879 130.309 138.114C105.928 120.94 71.2122 124.23 59.7268 138.118C48.2414 152.006 69.4333 187.27 73.5276 187.094Z"/>
</mask>
<path d="M73.5276 187.094L73.5087 186.655L73.6389 186.65L73.7511 186.716L73.5276 187.094ZM130.309 138.114L130.562 137.755L130.562 137.755L130.309 138.114ZM120.206 205.972L120.48 206.315L120.48 206.315L120.206 205.972ZM18.2861 44.895L17.8781 44.7319L17.8781 44.7319L18.2861 44.895ZM47.2435 0.176965L46.4241 5.18393L42.4976 1.97088L47.2435 0.176965ZM207.579 158.102C207.342 158.153 207.108 158.002 207.057 157.765C207.006 157.528 207.157 157.294 207.394 157.243L207.579 158.102ZM195.695 160.443C195.926 160.369 196.173 160.497 196.247 160.728C196.32 160.96 196.193 161.207 195.961 161.28L195.695 160.443ZM184.549 165.205C184.32 165.288 184.068 165.17 183.985 164.942C183.902 164.714 184.02 164.462 184.248 164.379L184.549 165.205ZM172.923 168.628C173.15 168.541 173.404 168.654 173.49 168.881C173.577 169.108 173.464 169.362 173.237 169.448L172.923 168.628ZM161.954 173.789C161.728 173.876 161.474 173.763 161.387 173.537C161.3 173.31 161.413 173.056 161.639 172.969L161.954 173.789ZM150.34 177.248C150.568 177.163 150.82 177.279 150.905 177.507C150.989 177.734 150.873 177.987 150.646 178.072L150.34 177.248ZM139.167 182.188C138.938 182.266 138.688 182.144 138.609 181.915C138.53 181.685 138.652 181.435 138.882 181.357L139.167 182.188ZM127.216 185.127C127.449 185.057 127.693 185.189 127.763 185.421C127.833 185.654 127.701 185.899 127.468 185.969L127.216 185.127ZM115.584 189.159C115.347 189.214 115.111 189.067 115.056 188.83C115.001 188.594 115.148 188.358 115.384 188.303L115.584 189.159ZM103.36 190.535C103.6 190.503 103.821 190.673 103.853 190.913C103.884 191.154 103.715 191.375 103.474 191.406L103.36 190.535ZM91.1562 192.088C90.9137 192.08 90.7239 191.876 90.7323 191.634C90.7407 191.391 90.9441 191.201 91.1866 191.21L91.1562 192.088ZM79.2458 189.209C79.4758 189.286 79.5994 189.535 79.522 189.765C79.4445 189.995 79.1953 190.119 78.9653 190.042L79.2458 189.209ZM68.3614 182.712C68.2199 182.515 68.265 182.24 68.4622 182.099C68.6593 181.957 68.9338 182.002 69.0753 182.199L68.3614 182.712ZM62.3777 170.426C62.4789 170.647 62.3823 170.908 62.1617 171.009C61.9412 171.11 61.6803 171.013 61.5791 170.793L62.3777 170.426ZM57.0277 157.857C56.9724 157.621 57.1191 157.384 57.3553 157.329C57.5916 157.273 57.828 157.42 57.8833 157.656L57.0277 157.857ZM57.279 144.331C57.2264 144.568 56.9917 144.717 56.7548 144.665C56.5179 144.612 56.3685 144.378 56.4211 144.141L57.279 144.331ZM64.1452 133.515C64.3439 133.376 64.6179 133.424 64.7572 133.623C64.8965 133.822 64.8484 134.096 64.6497 134.235L64.1452 133.515ZM75.9863 129.042C75.753 129.109 75.5097 128.974 75.4429 128.741C75.3761 128.507 75.511 128.264 75.7443 128.197L75.9863 129.042ZM88.3131 126.113C88.5554 126.098 88.7634 126.283 88.7778 126.525C88.7922 126.767 88.6076 126.976 88.3653 126.99L88.3131 126.113ZM100.928 127.427C100.687 127.396 100.517 127.176 100.547 126.935C100.578 126.695 100.798 126.524 101.039 126.555L100.928 127.427ZM113.471 129.311C113.702 129.385 113.829 129.632 113.755 129.863C113.68 130.094 113.433 130.221 113.202 130.147L113.471 129.311ZM124.732 135.131C124.52 135.013 124.443 134.745 124.561 134.533C124.68 134.321 124.947 134.245 125.159 134.363L124.732 135.131ZM135.527 141.517C135.714 141.671 135.741 141.948 135.587 142.136C135.433 142.323 135.157 142.35 134.969 142.196L135.527 141.517ZM143.511 150.963C143.368 150.767 143.411 150.492 143.607 150.349C143.803 150.206 144.077 150.249 144.221 150.445L143.511 150.963ZM149.219 161.875C149.256 162.115 149.092 162.34 148.853 162.377C148.613 162.415 148.388 162.251 148.35 162.012L149.219 161.875ZM147.01 173.968C147.093 173.739 147.345 173.621 147.573 173.704C147.801 173.786 147.919 174.038 147.837 174.266L147.01 173.968ZM140.063 187.467C139.912 187.657 139.635 187.688 139.445 187.537C139.256 187.386 139.225 187.109 139.376 186.92L140.063 187.467ZM126.845 199.828C127.027 199.667 127.304 199.684 127.465 199.866C127.626 200.047 127.609 200.325 127.428 200.486L126.845 199.828ZM115.593 209.939C115.393 210.076 115.119 210.025 114.982 209.825C114.845 209.625 114.896 209.351 115.096 209.214L115.593 209.939ZM104.705 215.154C104.925 215.052 105.186 215.149 105.288 215.369C105.39 215.589 105.294 215.85 105.073 215.952L104.705 215.154ZM93.6161 219.943C93.3801 220 93.1431 219.854 93.0868 219.618C93.0304 219.382 93.1761 219.145 93.4122 219.089L93.6161 219.943ZM81.5721 220.612C81.8147 220.607 82.0155 220.799 82.0205 221.042C82.0255 221.285 81.8328 221.485 81.5902 221.49L81.5721 220.612ZM69.4972 220.451C69.2589 220.406 69.1028 220.175 69.1487 219.937C69.1945 219.699 69.4248 219.543 69.6631 219.588L69.4972 220.451ZM58.1999 216.182C58.4248 216.273 58.5333 216.53 58.4423 216.754C58.3512 216.979 58.095 217.088 57.8701 216.997L58.1999 216.182ZM47.0839 211.433C46.8792 211.303 46.8189 211.031 46.9493 210.827C47.0796 210.622 47.3512 210.562 47.5559 210.692L47.0839 211.433ZM38.1281 203.333C38.3027 203.502 38.3075 203.78 38.139 203.954C37.9704 204.129 37.6922 204.134 37.5177 203.965L38.1281 203.333ZM29.7053 194.617C29.5555 194.426 29.5889 194.15 29.7798 194C29.9708 193.85 30.247 193.883 30.3967 194.074L29.7053 194.617ZM22.9631 184.355C23.1062 184.551 23.0633 184.826 22.8673 184.969C22.6713 185.112 22.3964 185.069 22.2533 184.873L22.9631 184.355ZM15.3837 174.695C15.2565 174.489 15.3211 174.218 15.5278 174.091C15.7345 173.964 16.0051 174.028 16.1322 174.235L15.3837 174.695ZM10.2915 163.53C10.3956 163.749 10.3022 164.011 10.083 164.115C9.86381 164.219 9.60173 164.126 9.49764 163.906L10.2915 163.53ZM4.93794 152.486C4.86314 152.255 4.98964 152.007 5.22049 151.932C5.45134 151.857 5.69912 151.984 5.77392 152.215L4.93794 152.486ZM2.85429 140.395C2.89521 140.634 2.73448 140.861 2.49529 140.902C2.2561 140.943 2.02903 140.782 1.98811 140.543L2.85429 140.395ZM0.670458 126.77C0.661612 126.528 0.851029 126.324 1.09353 126.315C1.33604 126.306 1.53979 126.496 1.54864 126.738L0.670458 126.77ZM1.83337 111.477C1.81606 111.719 1.60581 111.901 1.36376 111.884C1.12172 111.867 0.93953 111.656 0.956837 111.414L1.83337 111.477ZM2.7819 96.1692C2.82161 95.9298 3.04787 95.7679 3.28727 95.8076C3.52666 95.8473 3.68853 96.0736 3.64882 96.313L2.7819 96.1692ZM6.75469 81.3512C6.69641 81.5868 6.4582 81.7305 6.22264 81.6722C5.98708 81.6139 5.84337 81.3757 5.90165 81.1401L6.75469 81.3512ZM10.0805 66.3754C10.1538 66.1441 10.4008 66.016 10.6321 66.0893C10.8634 66.1626 10.9915 66.4096 10.9182 66.6409L10.0805 66.3754ZM15.9295 52.1904C15.8443 52.4177 15.591 52.5328 15.3638 52.4476C15.1366 52.3624 15.0214 52.1091 15.1066 51.8819L15.9295 52.1904ZM20.8065 38.6862C20.9218 38.4727 21.1883 38.3931 21.4019 38.5084C21.6154 38.6237 21.695 38.8903 21.5797 39.1038L20.8065 38.6862ZM28.3614 27.6432C28.232 27.8486 27.9607 27.9101 27.7554 27.7807C27.5501 27.6514 27.4885 27.3801 27.6179 27.1748L28.3614 27.6432ZM34.9617 16.0024C35.0986 15.8021 35.372 15.7507 35.5723 15.8876C35.7727 16.0246 35.8241 16.298 35.6871 16.4983L34.9617 16.0024ZM43.4359 5.65451C43.2896 5.84816 43.0141 5.88659 42.8204 5.74035C42.6268 5.59411 42.5884 5.31858 42.7346 5.12493L43.4359 5.65451ZM213.486 157.096C211.639 157.311 209.665 157.652 207.579 158.102L207.394 157.243C209.502 156.788 211.504 156.442 213.385 156.223L213.486 157.096ZM195.961 161.28C192.335 162.433 188.515 163.761 184.549 165.205L184.248 164.379C188.222 162.932 192.053 161.6 195.695 160.443L195.961 161.28ZM173.237 169.448C169.544 170.862 165.775 172.322 161.954 173.789L161.639 172.969C165.456 171.503 169.231 170.041 172.923 168.628L173.237 169.448ZM150.646 178.072C148.755 178.773 146.86 179.467 144.965 180.148L144.668 179.321C146.56 178.641 148.452 177.948 150.34 177.248L150.646 178.072ZM144.965 180.148C143.031 180.842 141.098 181.524 139.167 182.188L138.882 181.357C140.808 180.694 142.738 180.014 144.668 179.321L144.965 180.148ZM127.468 185.969C123.444 187.174 119.471 188.253 115.584 189.159L115.384 188.303C119.25 187.402 123.206 186.328 127.216 185.127L127.468 185.969ZM103.474 191.406C99.1776 191.969 95.0511 192.223 91.1562 192.088L91.1866 191.21C95.0233 191.343 99.1003 191.093 103.36 190.535L103.474 191.406ZM78.9653 190.042C76.9638 189.368 75.0718 188.517 73.304 187.472L73.7511 186.716C75.462 187.727 77.2975 188.553 79.2458 189.209L78.9653 190.042ZM73.5465 187.533C73.1829 187.549 72.8051 187.39 72.449 187.169C72.0817 186.941 71.6804 186.61 71.2553 186.198C70.4041 185.373 69.4155 184.18 68.3614 182.712L69.0753 182.199C70.1134 183.646 71.0677 184.792 71.8671 185.567C72.2674 185.956 72.6183 186.24 72.9125 186.423C73.2178 186.612 73.4105 186.659 73.5087 186.655L73.5465 187.533ZM61.5791 170.793C59.7078 166.718 58.0573 162.255 57.0277 157.857L57.8833 157.656C58.8965 161.984 60.5245 166.39 62.3777 170.426L61.5791 170.793ZM56.4211 144.141C56.9443 141.785 57.8968 139.641 59.3882 137.838L60.0654 138.398C58.6775 140.076 57.7775 142.086 57.279 144.331L56.4211 144.141ZM59.3882 137.838C60.6993 136.252 62.302 134.808 64.1452 133.515L64.6497 134.235C62.8619 135.488 61.3197 136.881 60.0654 138.398L59.3882 137.838ZM75.7443 128.197C79.6164 127.088 83.8614 126.378 88.3131 126.113L88.3653 126.99C83.9725 127.251 79.7915 127.952 75.9863 129.042L75.7443 128.197ZM101.039 126.555C105.176 127.082 109.357 127.989 113.471 129.311L113.202 130.147C109.142 128.843 105.013 127.947 100.928 127.427L101.039 126.555ZM125.159 134.363C127.005 135.391 128.81 136.52 130.562 137.755L130.056 138.473C128.33 137.257 126.551 136.144 124.732 135.131L125.159 134.363ZM130.562 137.755C132.322 138.994 133.98 140.247 135.527 141.517L134.969 142.196C133.441 140.942 131.801 139.702 130.056 138.473L130.562 137.755ZM144.221 150.445C146.859 154.052 148.585 157.842 149.219 161.875L148.35 162.012C147.743 158.143 146.084 154.481 143.511 150.963L144.221 150.445ZM147.837 174.266C147.169 176.115 146.293 178.008 145.199 179.95L144.433 179.519C145.506 177.614 146.36 175.765 147.01 173.968L147.837 174.266ZM145.199 179.95C143.833 182.376 142.128 184.879 140.063 187.467L139.376 186.92C141.416 184.362 143.094 181.897 144.433 179.519L145.199 179.95ZM127.428 200.486C125.284 202.384 122.97 204.326 120.48 206.315L119.931 205.628C122.411 203.648 124.714 201.716 126.845 199.828L127.428 200.486ZM120.48 206.315C118.848 207.618 117.218 208.825 115.593 209.939L115.096 209.214C116.703 208.112 118.316 206.918 119.931 205.628L120.48 206.315ZM105.073 215.952C101.195 217.741 97.3673 219.048 93.6161 219.943L93.4122 219.089C97.1063 218.207 100.879 216.919 104.705 215.154L105.073 215.952ZM81.5902 221.49C77.3931 221.577 73.3473 221.192 69.4972 220.451L69.6631 219.588C73.4565 220.318 77.4405 220.697 81.5721 220.612L81.5902 221.49ZM57.8701 216.997C53.9216 215.398 50.303 213.483 47.0839 211.433L47.5559 210.692C50.733 212.715 54.3042 214.605 58.1999 216.182L57.8701 216.997ZM37.5177 203.965C35.8893 202.393 34.5233 200.861 33.4502 199.444L34.1506 198.914C35.1924 200.289 36.5271 201.787 38.1281 203.333L37.5177 203.965ZM33.4502 199.444C32.3046 197.932 31.0451 196.325 29.7053 194.617L30.3967 194.074C31.7357 195.781 32.9998 197.394 34.1506 198.914L33.4502 199.444ZM22.2533 184.873C19.9577 181.728 17.6246 178.339 15.3837 174.695L16.1322 174.235C18.358 177.854 20.6774 181.223 22.9631 184.355L22.2533 184.873ZM9.49764 163.906C7.7875 160.305 6.23883 156.5 4.93794 152.486L5.77392 152.215C7.06194 156.19 8.596 159.959 10.2915 163.53L9.49764 163.906ZM1.98811 140.543C1.64756 138.552 1.37386 136.518 1.17487 134.438L2.04964 134.355C2.24653 136.412 2.51734 138.425 2.85429 140.395L1.98811 140.543ZM1.17487 134.438C0.930237 131.882 0.763674 129.326 0.670458 126.77L1.54864 126.738C1.64124 129.277 1.8067 131.816 2.04964 134.355L1.17487 134.438ZM0.956837 111.414C1.32153 106.314 1.94253 101.229 2.7819 96.1692L3.64882 96.313C2.81355 101.348 2.19596 106.406 1.83337 111.477L0.956837 111.414ZM5.90165 81.1401C7.12898 76.1797 8.53427 71.2546 10.0805 66.3754L10.9182 66.6409C9.37708 71.504 7.97705 76.4109 6.75469 81.3512L5.90165 81.1401ZM15.1066 51.8819C16.0058 49.484 16.9312 47.1002 17.8781 44.7319L18.6941 45.0581C17.7493 47.421 16.8262 49.7989 15.9295 52.1904L15.1066 51.8819ZM17.8781 44.7319C18.5433 43.0682 19.5538 41.0056 20.8065 38.6862L21.5797 39.1038C20.334 41.4104 19.3413 43.4394 18.6941 45.0581L17.8781 44.7319ZM27.6179 27.1748C29.9597 23.4584 32.4835 19.6278 34.9617 16.0024L35.6871 16.4983C33.2146 20.1155 30.6968 23.9369 28.3614 27.6432L27.6179 27.1748ZM42.7346 5.12493C43.3114 4.36122 43.8659 3.63944 44.3934 2.96627L45.0851 3.5083C44.5612 4.17683 44.0099 4.89442 43.4359 5.65451L42.7346 5.12493ZM73.5276 187.094L73.4898 186.216L73.7503 186.205L73.9747 186.338L73.5276 187.094ZM130.309 138.114L130.815 137.395L130.815 137.395L130.309 138.114ZM120.206 205.972L120.754 206.658L120.754 206.658L120.206 205.972ZM18.2861 44.895L17.4701 44.5687L17.4701 44.5687L18.2861 44.895ZM47.2435 0.176965L45.7297 10.2105L37.7973 3.8828L47.2435 0.176965ZM207.672 158.532C207.197 158.634 206.73 158.332 206.627 157.858C206.525 157.383 206.827 156.916 207.301 156.814L207.672 158.532ZM195.562 160.024C196.025 159.877 196.519 160.133 196.666 160.595C196.813 161.058 196.557 161.552 196.094 161.699L195.562 160.024ZM184.699 165.617C184.243 165.783 183.738 165.548 183.572 165.092C183.406 164.636 183.642 164.132 184.098 163.966L184.699 165.617ZM172.766 168.217C173.219 168.044 173.727 168.271 173.901 168.724C174.074 169.177 173.848 169.685 173.394 169.859L172.766 168.217ZM162.112 174.2C161.659 174.374 161.151 174.147 160.977 173.694C160.803 173.241 161.029 172.733 161.482 172.559L162.112 174.2ZM150.187 176.836C150.642 176.667 151.148 176.899 151.317 177.354C151.486 177.809 151.254 178.315 150.799 178.484L150.187 176.836ZM139.31 182.603C138.851 182.761 138.351 182.517 138.193 182.058C138.036 181.599 138.28 181.099 138.739 180.941L139.31 182.603ZM127.09 184.706C127.555 184.567 128.045 184.83 128.184 185.295C128.323 185.76 128.059 186.25 127.594 186.389L127.09 184.706ZM115.683 189.587C115.211 189.697 114.738 189.403 114.628 188.93C114.518 188.457 114.812 187.985 115.285 187.875L115.683 189.587ZM103.303 190.099C103.784 190.036 104.225 190.375 104.288 190.856C104.351 191.337 104.012 191.779 103.531 191.842L103.303 190.099ZM91.141 192.527C90.6559 192.51 90.2764 192.103 90.2931 191.618C90.3099 191.133 90.7167 190.754 91.2018 190.771L91.141 192.527ZM79.386 188.792C79.8459 188.947 80.0933 189.446 79.9384 189.906C79.7835 190.366 79.2851 190.613 78.8251 190.458L79.386 188.792ZM68.0045 182.968C67.7215 182.574 67.8117 182.025 68.2059 181.742C68.6002 181.459 69.1493 181.549 69.4323 181.943L68.0045 182.968ZM62.777 170.243C62.9795 170.684 62.7861 171.206 62.3451 171.408C61.904 171.611 61.3823 171.417 61.1798 170.976L62.777 170.243ZM56.5999 157.957C56.4892 157.484 56.7826 157.012 57.2552 156.901C57.7277 156.79 58.2005 157.084 58.3111 157.556L56.5999 157.957ZM57.7079 144.426C57.6027 144.9 57.1334 145.199 56.6596 145.094C56.1858 144.989 55.887 144.519 55.9922 144.045L57.7079 144.426ZM63.893 133.156C64.2903 132.877 64.8384 132.973 65.117 133.371C65.3956 133.768 65.2993 134.316 64.9019 134.595L63.893 133.156ZM76.1073 129.465C75.6407 129.598 75.1542 129.328 75.0205 128.862C74.8869 128.395 75.1567 127.909 75.6233 127.775L76.1073 129.465ZM88.287 125.674C88.7715 125.645 89.1876 126.015 89.2164 126.499C89.2453 126.984 88.8759 127.4 88.3914 127.429L88.287 125.674ZM100.872 127.863C100.391 127.801 100.05 127.361 100.111 126.88C100.173 126.398 100.613 126.058 101.094 126.119L100.872 127.863ZM113.605 128.892C114.067 129.041 114.321 129.536 114.173 129.998C114.024 130.46 113.53 130.714 113.067 130.566L113.605 128.892ZM124.518 135.515C124.094 135.279 123.941 134.743 124.178 134.319C124.414 133.895 124.949 133.743 125.373 133.979L124.518 135.515ZM135.806 141.178C136.181 141.486 136.235 142.039 135.927 142.414C135.619 142.79 135.065 142.844 134.69 142.536L135.806 141.178ZM143.157 151.223C142.87 150.831 142.956 150.281 143.347 149.995C143.739 149.708 144.289 149.793 144.575 150.185L143.157 151.223ZM149.653 161.807C149.728 162.286 149.4 162.736 148.921 162.811C148.441 162.887 147.992 162.559 147.916 162.08L149.653 161.807ZM146.597 173.818C146.762 173.362 147.266 173.126 147.722 173.291C148.179 173.456 148.415 173.959 148.25 174.416L146.597 173.818ZM140.406 187.741C140.104 188.121 139.551 188.183 139.171 187.881C138.792 187.578 138.73 187.025 139.032 186.646L140.406 187.741ZM126.554 199.499C126.917 199.177 127.473 199.211 127.794 199.574C128.116 199.938 128.082 200.493 127.719 200.815L126.554 199.499ZM115.841 210.301C115.441 210.576 114.894 210.474 114.62 210.074C114.345 209.673 114.447 209.126 114.848 208.852L115.841 210.301ZM104.521 214.755C104.962 214.552 105.484 214.744 105.687 215.185C105.89 215.626 105.698 216.148 105.257 216.351L104.521 214.755ZM93.7181 220.371C93.246 220.483 92.772 220.192 92.6594 219.72C92.5467 219.248 92.8381 218.774 93.3102 218.661L93.7181 220.371ZM81.5631 220.172C82.0483 220.162 82.4498 220.548 82.4598 221.033C82.4697 221.518 82.0845 221.92 81.5993 221.93L81.5631 220.172ZM69.4142 220.883C68.9376 220.791 68.6255 220.331 68.7172 219.854C68.8089 219.377 69.2695 219.065 69.7461 219.157L69.4142 220.883ZM58.3648 215.775C58.8147 215.957 59.0317 216.47 58.8496 216.919C58.6674 217.369 58.1551 217.586 57.7052 217.404L58.3648 215.775ZM46.848 211.804C46.4386 211.543 46.318 211 46.5786 210.591C46.8392 210.181 47.3824 210.061 47.7918 210.321L46.848 211.804ZM38.4334 203.017C38.7825 203.354 38.7922 203.91 38.455 204.26C38.1179 204.609 37.5616 204.618 37.2125 204.281L38.4334 203.017ZM29.3595 194.888C29.06 194.506 29.1268 193.954 29.5087 193.654C29.8906 193.355 30.443 193.421 30.7425 193.803L29.3595 194.888ZM23.318 184.096C23.6041 184.488 23.5183 185.037 23.1263 185.324C22.7343 185.61 22.1846 185.524 21.8984 185.132L23.318 184.096ZM15.0094 174.926C14.7552 174.512 14.8842 173.971 15.2976 173.717C15.711 173.462 16.2522 173.591 16.5065 174.005L15.0094 174.926ZM10.6884 163.341C10.8965 163.779 10.7099 164.304 10.2715 164.512C9.83306 164.72 9.3089 164.533 9.10073 164.095L10.6884 163.341ZM4.51996 152.621C4.37035 152.159 4.62336 151.664 5.08505 151.514C5.54675 151.365 6.0423 151.618 6.19191 152.079L4.51996 152.621ZM3.28738 140.321C3.36922 140.799 3.04776 141.253 2.56938 141.335C2.09101 141.417 1.63686 141.095 1.55502 140.617L3.28738 140.321ZM0.231367 126.786C0.213676 126.301 0.592509 125.894 1.07752 125.876C1.56252 125.858 1.97004 126.237 1.98773 126.722L0.231367 126.786ZM2.27163 111.508C2.23701 111.992 1.81652 112.357 1.33242 112.322C0.848331 112.288 0.483958 111.867 0.518573 111.383L2.27163 111.508ZM2.34844 96.0973C2.42787 95.6185 2.88039 95.2947 3.35917 95.3742C3.83796 95.4536 4.1617 95.9061 4.08228 96.3849L2.34844 96.0973ZM7.18122 81.4567C7.06465 81.9279 6.58823 82.2153 6.11711 82.0987C5.64599 81.9822 5.35856 81.5057 5.47513 81.0346L7.18122 81.4567ZM9.66166 66.2427C9.80828 65.78 10.3022 65.5238 10.7648 65.6705C11.2275 65.8171 11.4837 66.311 11.3371 66.7736L9.66166 66.2427ZM16.3409 52.3447C16.1705 52.7991 15.6639 53.0294 15.2095 52.859C14.7551 52.6886 14.5248 52.1821 14.6952 51.7276L16.3409 52.3447ZM20.4199 38.4774C20.6505 38.0504 21.1836 37.8912 21.6107 38.1218C22.0377 38.3525 22.1969 38.8856 21.9663 39.3126L20.4199 38.4774ZM28.7331 27.8775C28.4744 28.2881 27.9318 28.4112 27.5212 28.1525C27.1106 27.8937 26.9874 27.3511 27.2462 26.9405L28.7331 27.8775ZM34.5989 15.7545C34.8728 15.3538 35.4196 15.251 35.8203 15.5249C36.221 15.7988 36.3237 16.3456 36.0499 16.7463L34.5989 15.7545ZM43.7865 5.91931C43.494 6.3066 42.943 6.38346 42.5557 6.09098C42.1684 5.7985 42.0915 5.24743 42.384 4.86013L43.7865 5.91931ZM213.537 157.533C211.706 157.746 209.747 158.084 207.672 158.532L207.301 156.814C209.42 156.357 211.436 156.008 213.334 155.787L213.537 157.533ZM196.094 161.699C192.475 162.849 188.662 164.175 184.699 165.617L184.098 163.966C188.075 162.518 191.913 161.184 195.562 160.024L196.094 161.699ZM173.394 169.859C169.701 171.273 165.935 172.731 162.112 174.2L161.482 172.559C165.296 171.094 169.074 169.631 172.766 168.217L173.394 169.859ZM150.799 178.484C148.907 179.186 147.01 179.88 145.113 180.561L144.519 178.907C146.409 178.228 148.3 177.536 150.187 176.836L150.799 178.484ZM145.113 180.561C143.178 181.257 141.243 181.939 139.31 182.603L138.739 180.941C140.663 180.28 142.591 179.6 144.519 178.907L145.113 180.561ZM127.594 186.389C123.564 187.597 119.581 188.679 115.683 189.587L115.285 187.875C119.14 186.977 123.087 185.905 127.09 184.706L127.594 186.389ZM103.531 191.842C99.2162 192.407 95.0651 192.663 91.141 192.527L91.2018 190.771C95.0093 190.902 99.0616 190.655 103.303 190.099L103.531 191.842ZM78.8251 190.458C76.7969 189.775 74.8767 188.912 73.0805 187.851L73.9747 186.338C75.6571 187.332 77.4644 188.145 79.386 188.792L78.8251 190.458ZM73.5654 187.972C73.0692 187.994 72.5987 187.779 72.2173 187.543C71.8135 187.292 71.3869 186.938 70.9495 186.514C70.0723 185.663 69.0666 184.448 68.0045 182.968L69.4323 181.943C70.4624 183.378 71.3995 184.502 72.1729 185.252C72.5609 185.628 72.8866 185.89 73.1442 186.049C73.4242 186.223 73.5242 186.215 73.4898 186.216L73.5654 187.972ZM61.1798 170.976C59.2994 166.881 57.6377 162.39 56.5999 157.957L58.3111 157.556C59.316 161.849 60.9329 166.227 62.777 170.243L61.1798 170.976ZM55.9922 144.045C56.5277 141.634 57.5064 139.424 59.0496 137.558L60.404 138.678C59.0679 140.293 58.1942 142.237 57.7079 144.426L55.9922 144.045ZM59.0496 137.558C60.3891 135.938 62.0221 134.467 63.893 133.156L64.9019 134.595C63.1419 135.829 61.6299 137.196 60.404 138.678L59.0496 137.558ZM75.6233 127.775C79.5288 126.656 83.8059 125.941 88.287 125.674L88.3914 127.429C84.028 127.688 79.8791 128.384 76.1073 129.465L75.6233 127.775ZM101.094 126.119C105.257 126.649 109.465 127.562 113.605 128.892L113.067 130.566C109.034 129.27 104.932 128.38 100.872 127.863L101.094 126.119ZM125.373 133.979C127.232 135.014 129.05 136.152 130.815 137.395L129.803 138.832C128.09 137.625 126.324 136.521 124.518 135.515L125.373 133.979ZM130.815 137.395C132.583 138.64 134.249 139.9 135.806 141.178L134.69 142.536C133.172 141.289 131.54 140.056 129.803 138.832L130.815 137.395ZM144.575 150.185C147.247 153.838 149.006 157.692 149.653 161.807L147.916 162.08C147.322 158.293 145.696 154.695 143.157 151.223L144.575 150.185ZM148.25 174.416C147.573 176.289 146.686 178.204 145.582 180.165L144.05 179.303C145.112 177.418 145.956 175.591 146.597 173.818L148.25 174.416ZM145.582 180.165C144.203 182.615 142.484 185.137 140.406 187.741L139.032 186.646C141.06 184.103 142.724 181.658 144.05 179.303L145.582 180.165ZM127.719 200.815C125.569 202.719 123.249 204.666 120.754 206.658L119.657 205.285C122.132 203.309 124.428 201.381 126.554 199.499L127.719 200.815ZM120.754 206.658C119.114 207.968 117.476 209.181 115.841 210.301L114.848 208.852C116.446 207.756 118.05 206.569 119.657 205.285L120.754 206.658ZM105.257 216.351C101.353 218.152 97.4978 219.469 93.7181 220.371L93.3102 218.661C96.9758 217.787 100.721 216.508 104.521 214.755L105.257 216.351ZM81.5993 221.93C77.3694 222.017 73.2927 221.629 69.4142 220.883L69.7461 219.157C73.5111 219.881 77.4643 220.257 81.5631 220.172L81.5993 221.93ZM57.7052 217.404C53.7303 215.795 50.088 213.867 46.848 211.804L47.7918 210.321C50.948 212.331 54.4955 214.208 58.3648 215.775L57.7052 217.404ZM37.2125 204.281C35.5704 202.695 34.1888 201.147 33.0999 199.71L34.5009 198.648C35.5269 200.003 36.846 201.484 38.4334 203.017L37.2125 204.281ZM33.0999 199.71C31.957 198.201 30.6998 196.597 29.3595 194.888L30.7425 193.803C32.081 195.51 33.3474 197.126 34.5009 198.648L33.0999 199.71ZM21.8984 185.132C19.5979 181.98 17.2578 178.582 15.0094 174.926L16.5065 174.005C18.7248 177.612 21.0373 180.971 23.318 184.096L21.8984 185.132ZM9.10073 164.095C7.38325 160.478 5.82728 156.656 4.51996 152.621L6.19191 152.079C7.47349 156.035 9.00025 159.786 10.6884 163.341L9.10073 164.095ZM1.55502 140.617C1.21268 138.616 0.93753 136.571 0.737486 134.48L2.48702 134.313C2.68286 136.359 2.95222 138.361 3.28738 140.321L1.55502 140.617ZM0.737486 134.48C0.492008 131.915 0.324889 129.35 0.231367 126.786L1.98773 126.722C2.08003 129.253 2.24493 131.783 2.48702 134.313L0.737486 134.48ZM0.518573 111.383C0.88431 106.268 1.50702 101.169 2.34844 96.0973L4.08228 96.3849C3.24905 101.408 2.63318 106.452 2.27163 111.508L0.518573 111.383ZM5.47513 81.0346C6.70494 76.0641 8.11286 71.1299 9.66166 66.2427L11.3371 66.7736C9.79848 71.6287 8.40108 76.5264 7.18122 81.4567L5.47513 81.0346ZM14.6952 51.7276C15.5956 49.3266 16.5221 46.9398 17.4701 44.5687L19.102 45.2212C18.1584 47.5814 17.2365 49.9563 16.3409 52.3447L14.6952 51.7276ZM17.4701 44.5687C18.1443 42.8826 19.1638 40.8032 20.4199 38.4774L21.9663 39.3126C20.724 41.6128 19.7402 43.6251 19.102 45.2212L17.4701 44.5687ZM27.2462 26.9405C29.5911 23.2191 32.1179 19.3839 34.5989 15.7545L36.0499 16.7463C33.5801 20.3593 31.0654 24.1762 28.7331 27.8775L27.2462 26.9405Z" fill="#4E23CB" mask="url(#path-1-outside-1_1228_41395)"/>
</svg>
