<svg width="52" height="52" viewBox="0 0 52 52" fill="none" xmlns="http://www.w3.org/2000/svg">
<path d="M36.834 39.9318H28.1673L18.5256 46.3451C17.0956 47.2984 15.1673 46.2802 15.1673 44.5468V39.9318C8.66732 39.9318 4.33398 35.5985 4.33398 29.0985V16.0983C4.33398 9.59835 8.66732 5.26501 15.1673 5.26501H36.834C43.334 5.26501 47.6673 9.59835 47.6673 16.0983V29.0985C47.6673 35.5985 43.334 39.9318 36.834 39.9318Z" stroke="#4F4F4F" stroke-width="1.5" stroke-miterlimit="10" stroke-linecap="round" stroke-linejoin="round"/>
<path d="M26.0009 24.6133V24.1584C26.0009 22.685 26.911 21.905 27.821 21.2767C28.7093 20.67 29.5975 19.89 29.5975 18.46C29.5975 16.4667 27.9942 14.8633 26.0009 14.8633C24.0076 14.8633 22.4043 16.4667 22.4043 18.46" stroke="#4F4F4F" stroke-width="1.5" stroke-linecap="round" stroke-linejoin="round"/>
<path d="M25.9896 29.7917H26.0091" stroke="#4F4F4F" stroke-width="1.5" stroke-linecap="round" stroke-linejoin="round"/>
</svg>
