<svg width="33" height="33" viewBox="0 0 33 33" fill="none" xmlns="http://www.w3.org/2000/svg">
<path d="M26.1875 12.625H24.25V8.75C24.25 4.47006 20.7799 1 16.5 1C12.2201 1 8.75 4.47006 8.75 8.75V12.625H6.8125C5.74155 12.625 4.875 13.4915 4.875 14.5625V30.0625C4.875 31.1335 5.74155 32 6.8125 32H26.1875C27.2585 32 28.125 31.1335 28.125 30.0625V14.5625C28.125 13.4915 27.2585 12.625 26.1875 12.625ZM16.5 24.25C15.429 24.25 14.5625 23.3835 14.5625 22.3125C14.5625 21.2415 15.429 20.375 16.5 20.375C17.571 20.375 18.4375 21.2415 18.4375 22.3125C18.4375 23.3835 17.571 24.25 16.5 24.25ZM20.375 12.625H12.625V8.75C12.625 6.61003 14.36 4.875 16.5 4.875C18.64 4.875 20.375 6.61003 20.375 8.75V12.625Z" fill="#FF6B6B"/>
</svg>
