<svg width="20" height="19" viewBox="0 0 20 19" fill="none" xmlns="http://www.w3.org/2000/svg">
<path d="M19 0.837402H2C1.46957 0.837402 0.960859 1.04812 0.585786 1.42319C0.210714 1.79826 0 2.30697 0 2.8374V16.8374C0 17.3678 0.210714 17.8765 0.585786 18.2516C0.960859 18.6267 1.46957 18.8374 2 18.8374H18C18.5304 18.8374 19.0391 18.6267 19.4142 18.2516C19.7893 17.8765 20 17.3678 20 16.8374V5.8374C20 5.57219 19.8946 5.31783 19.7071 5.1303C19.5196 4.94276 19.2652 4.8374 19 4.8374H3C2.73478 4.8374 2.48043 4.73205 2.29289 4.54451C2.10536 4.35697 2 4.10262 2 3.8374C2 3.57219 2.10536 3.31783 2.29289 3.1303C2.48043 2.94276 2.73478 2.8374 3 2.8374H20V1.8374C20 1.57219 19.8946 1.31783 19.7071 1.1303C19.5196 0.942759 19.2652 0.837402 19 0.837402ZM16.5 10.3374C16.7967 10.3374 17.0867 10.4254 17.3334 10.5902C17.58 10.755 17.7723 10.9893 17.8858 11.2634C17.9993 11.5375 18.0291 11.8391 17.9712 12.13C17.9133 12.421 17.7704 12.6883 17.5607 12.8981C17.3509 13.1078 17.0836 13.2507 16.7926 13.3086C16.5017 13.3665 16.2001 13.3368 15.926 13.2232C15.6519 13.1097 15.4176 12.9174 15.2528 12.6708C15.088 12.4241 15 12.1341 15 11.8374C15 11.4396 15.158 11.058 15.4393 10.7767C15.7206 10.4954 16.1022 10.3374 16.5 10.3374Z" fill="#4E23CB"/>
</svg>
